<?xml version="1.0" encoding="UTF-8" standalone="no"?>
<!-- Creator: CorelDRAW X7 -->

<svg
   xmlns:dc="http://purl.org/dc/elements/1.1/"
   xmlns:cc="http://creativecommons.org/ns#"
   xmlns:rdf="http://www.w3.org/1999/02/22-rdf-syntax-ns#"
   xmlns:svg="http://www.w3.org/2000/svg"
   xmlns="http://www.w3.org/2000/svg"
   xmlns:sodipodi="http://sodipodi.sourceforge.net/DTD/sodipodi-0.dtd"
   xmlns:inkscape="http://www.inkscape.org/namespaces/inkscape"
   xml:space="preserve"
   width="662.11603"
   height="189.006"
   version="1.1"
   style="clip-rule:evenodd;fill-rule:evenodd;image-rendering:optimizeQuality;shape-rendering:geometricPrecision;text-rendering:geometricPrecision"
   viewBox="0 0 6896.989 1968.8437"
   id="svg3711"
   sodipodi:docname="ieee.svg"
   inkscape:version="0.92.1 r15371"><metadata
   id="metadata3715"><rdf:RDF><cc:Work
       rdf:about=""><dc:format>image/svg+xml</dc:format><dc:type
         rdf:resource="http://purl.org/dc/dcmitype/StillImage" /><dc:title></dc:title></cc:Work></rdf:RDF></metadata><sodipodi:namedview
   pagecolor="#ffffff"
   bordercolor="#666666"
   borderopacity="1"
   objecttolerance="10"
   gridtolerance="10"
   guidetolerance="10"
   inkscape:pageopacity="0"
   inkscape:pageshadow="2"
   inkscape:window-width="1366"
   inkscape:window-height="715"
   id="namedview3713"
   showgrid="false"
   units="px"
   inkscape:zoom="0.29252145"
   inkscape:cx="192.88315"
   inkscape:cy="912.75357"
   inkscape:window-x="-8"
   inkscape:window-y="-8"
   inkscape:window-maximized="1"
   inkscape:current-layer="svg3711" />
 <defs
   id="defs3682">
  <style
   type="text/css"
   id="style3680">
   <![CDATA[
    .fil2 {fill:#123D6C}
    .fil1 {fill:#324388}
    .fil3 {fill:#FEFEFE}
    .fil0 {fill:#324388;fill-rule:nonzero}
   ]]>
  </style>
 </defs>
 <g
   id="Layer_x0020_1"
   transform="translate(-1055.9289,-9614.3146)">
  <metadata
   id="CorelCorpID_0Corel-Layer" />
  <g
   id="_2118539393344">
   <path
   class="fil0"
   d="m 6692,9891 h 1238 v 320 h -775 v 238 h 719 v 305 h -719 v 294 h 798 v 339 H 6692 Z m -1379,-3 h 1238 v 320 h -775 v 238 h 719 v 305 h -719 v 294 h 798 v 339 H 5313 Z m -1380,0 h 1239 v 320 h -775 v 238 h 719 v 305 h -719 v 294 h 798 v 339 H 3933 Z m -621,0 h 463 v 1496 h -463 z"
   id="path3685"
   inkscape:connector-curvature="0"
   style="fill:#324388;fill-rule:nonzero" />
   <g
   id="g3707">
    <path
   class="fil1"
   d="m 1580,10881 c 8,17 56,58 80,88 24,29 73,67 105,99 8,7 -2,4 9,5 10,3 38,28 45,35 7,7 13,13 21,18 l 34,27 c 30,25 43,40 77,62 34,23 55,51 99,60 21,4 17,2 33,-5 13,-6 16,-4 28,-12 26,-19 22,-10 46,-32 l 90,-69 c 19,-13 51,-37 65,-54 13,-17 48,-38 62,-56 13,-16 26,-26 41,-39 20,-18 53,-56 77,-79 7,-7 13,-13 20,-20 13,-13 29,-27 39,-40 5,-6 5,-7 10,-12 17,-15 31,-35 46,-52 l 69,-88 c 33,-48 91,-93 58,-161 -14,-26 -34,-46 -50,-69 -12,-17 -65,-85 -78,-100 l -38,-43 c -6,-7 -3,-4 -9,-9 -7,-7 -9,-12 -19,-21 -18,-16 -43,-41 -58,-62 -10,-15 -28,-24 -40,-37 -8,-11 -74,-76 -79,-80 l -162,-139 -34,-24 c -30,-18 -82,-75 -136,-46 -52,28 -126,86 -172,127 -5,5 -5,4 -10,8 -29,22 -63,45 -86,74 -7,8 -111,99 -122,114 -8,12 -28,31 -39,41 -6,6 -12,15 -18,22 -12,13 -27,24 -38,39 -5,7 -4,5 -10,11 l -18,22 c -7,10 -20,19 -29,29 l -69,88 c -5,7 -11,16 -16,24 -6,8 -12,15 -17,23 -35,64 13,119 50,162 24,29 44,60 71,88 4,4 5,7 9,12 l 19,21 c 11,14 41,33 44,50 z"
   id="path3687"
   inkscape:connector-curvature="0"
   style="fill:#324388" />
    <path
   class="fil2"
   d="m 2056,10067 c 6,8 115,304 117,315 l -80,2 10,300 -95,1 9,-301 h -70 z"
   id="path3689"
   inkscape:connector-curvature="0"
   style="fill:#123d6c" />
    <path
   class="fil2"
   d="m 2213,10450 180,48 c -13,6 -16,0 -31,10 20,7 57,35 66,47 7,10 15,23 17,39 4,46 -41,76 -76,95 -30,15 -46,23 -84,31 -16,2 -29,9 -44,11 -124,23 -244,23 -369,2 -27,-4 -111,-23 -133,-35 -14,-8 -24,-13 -39,-19 -28,-11 -49,-28 -64,-52 -20,-32 -10,-57 7,-86 11,-18 9,-14 28,-28 10,-7 21,-15 34,-22 41,-25 74,-41 121,-50 23,-4 41,16 74,37 l 34,24 c -19,9 -45,14 -65,21 -35,13 -60,22 -84,51 -17,20 -22,38 -1,60 5,4 18,15 25,20 40,28 156,44 213,51 53,7 188,-7 238,-24 11,-4 22,-8 34,-11 27,-6 38,-14 58,-31 33,-30 38,-50 8,-82 -14,-14 -32,-25 -57,-32 -35,-11 -60,20 -69,-6 -7,-23 -14,-46 -21,-69 z"
   id="path3691"
   inkscape:connector-curvature="0"
   style="fill:#123d6c" />
    <path
   class="fil2"
   d="m 1989,11072 14,-305 104,3 14,306 c -24,-1 -116,2 -132,-4 z"
   id="path3693"
   inkscape:connector-curvature="0"
   style="fill:#123d6c" />
    <path
   class="fil1"
   d="m 2033,9869 c 44,-9 76,7 110,26 9,5 18,11 27,18 17,12 32,26 52,39 25,17 26,25 50,41 24,15 81,67 100,86 7,8 6,5 13,10 10,7 77,73 82,78 l 18,17 c 19,15 6,6 17,18 29,35 66,77 98,108 21,21 103,124 123,151 12,17 26,36 38,54 6,9 13,18 18,28 4,9 12,23 14,31 10,39 2,48 -13,74 -3,5 -5,8 -9,14 -3,6 -4,10 -8,16 -6,11 -47,72 -54,81 -4,4 -8,7 -12,12 -4,4 -6,9 -10,13 -32,35 -55,67 -85,98 -8,8 -13,15 -21,24 l -90,92 c -17,17 -117,118 -141,136 -21,15 -21,20 -51,40 l -49,42 c -21,20 -80,63 -105,79 -11,7 -48,30 -59,32 -56,6 -68,-10 -93,-23 l -44,-24 c -12,-8 -8,-10 -25,-22 -40,-26 -39,-30 -75,-61 l -101,-84 -119,-111 c -16,-12 -33,-34 -46,-47 -8,-9 -14,-15 -22,-23 -37,-36 -27,-28 -54,-60 -21,-24 -36,-31 -60,-68 -19,-30 -31,-41 -53,-70 -7,-10 -12,-19 -19,-28 -15,-22 -46,-59 -53,-83 -14,-50 27,-107 46,-136 12,-18 26,-36 38,-53 9,-13 12,-14 22,-25 15,-15 46,-54 64,-72 17,-17 29,-30 45,-47 l 68,-70 c 8,-13 12,-13 23,-21 32,-24 66,-62 95,-91 l 46,-45 c 17,-14 33,-28 50,-42 22,-19 24,-15 51,-40 54,-49 51,-41 103,-79 10,-7 20,-12 29,-18 20,-12 4,-10 31,-15 z m 595,1094 c 117,-117 263,-201 391,-306 37,-38 25,-23 34,-54 5,-17 -2,-16 -9,-30 -11,-22 -21,-32 -44,-44 -3,-2 -5,-4 -8,-6 l -27,-18 c -9,-5 -16,-11 -24,-18 -28,-21 -58,-38 -84,-61 l -80,-66 c -13,-10 -22,-12 -34,-25 -20,-21 -37,-36 -61,-53 -13,-9 -32,-29 -45,-41 l -46,-44 -173,-173 c -28,-28 -45,-47 -68,-77 -13,-16 -29,-29 -42,-45 l -53,-65 c -5,-6 -6,-10 -12,-16 l -90,-114 c -4,-6 -6,-12 -11,-17 -9,-11 -15,-22 -22,-34 -9,-19 -31,-32 -50,-39 -18,-7 -32,1 -44,9 -12,8 -19,17 -27,29 l -37,50 c -18,24 -49,56 -65,81 -22,34 -51,68 -78,97 -6,6 -7,9 -13,15 -15,16 -28,28 -42,45 -8,11 -17,22 -26,32 l -44,43 c -24,28 -14,18 -41,46 l -29,30 c -23,24 -46,49 -71,72 -20,17 -39,40 -61,56 -33,25 -70,68 -106,97 -12,9 -12,11 -25,18 -14,9 -26,23 -39,33 -7,5 -10,9 -16,13 -6,4 -11,7 -18,12 l -81,64 c -43,31 -78,48 -117,87 -14,14 -32,30 -34,51 -1,12 3,11 9,20 26,41 93,64 131,102 22,22 33,21 50,36 l 16,14 c 16,14 46,40 64,52 34,23 64,50 93,79 20,20 44,34 64,54 l 30,28 c 14,14 27,30 42,42 7,6 12,7 18,13 20,19 103,100 116,117 14,18 50,61 67,78 19,19 39,37 55,59 l 64,82 c 5,6 7,10 12,16 5,8 7,10 13,18 8,11 17,20 25,32 9,13 16,23 24,35 9,12 16,20 25,32 l 22,36 c 12,21 49,51 73,38 11,-6 51,-47 58,-57 20,-30 42,-56 61,-85 111,-163 298,-333 440,-475 z"
   id="path3695"
   inkscape:connector-curvature="0"
   style="fill:#324388" />
    <path
   class="fil3"
   d="m 1774,11073 c -11,-1 -1,2 -9,-5 -32,-32 -81,-70 -105,-99 -24,-30 -72,-71 -80,-88 -10,-8 -66,-68 -77,-83 -6,-8 -12,-12 -20,-20 -18,-18 -34,-46 -52,-67 -8,-9 -12,-11 -19,-21 -85,-108 -31,-146 37,-237 33,-43 47,-51 74,-85 8,-9 11,-13 18,-22 8,-9 13,-11 20,-20 25,-26 93,-101 117,-122 l 126,-116 c 16,-10 30,-23 45,-34 l 33,-29 c 4,-3 5,-4 10,-8 16,-13 27,-21 45,-34 52,-37 100,-90 164,-62 22,10 71,47 95,64 16,12 27,25 33,29 41,33 56,46 95,82 7,7 15,11 23,18 39,35 106,100 142,138 7,8 11,15 18,22 29,30 71,70 97,102 23,29 49,58 71,89 10,14 23,33 33,46 51,65 57,96 7,163 -19,24 -51,71 -68,91 -13,16 -23,27 -36,44 -30,40 -194,203 -236,244 -7,8 -12,13 -21,19 -23,17 -41,36 -62,57 -9,9 -33,27 -44,36 -18,13 -34,21 -47,33 -7,8 -12,13 -21,19 -11,7 -14,8 -23,17 -9,9 -30,19 -48,31 -8,6 -19,6 -29,11 -30,15 -65,-6 -88,-23 -9,-7 -12,-11 -22,-18 -33,-25 -41,-25 -68,-51 -15,-16 -25,-23 -43,-36 -9,-7 -14,-12 -22,-18 -3,-2 -5,-4 -7,-5 -23,-21 -30,-26 -56,-52 z m 259,-1204 c -27,5 -11,3 -31,15 -9,6 -19,11 -29,18 -52,38 -49,30 -103,79 -27,25 -29,21 -51,40 -17,14 -33,28 -50,42 l -46,45 c -29,29 -63,67 -95,91 -11,8 -15,8 -23,21 l -68,70 c -16,17 -28,30 -45,47 -18,18 -49,57 -64,72 -10,11 -13,12 -22,25 -12,17 -26,35 -38,53 -19,29 -60,86 -46,136 7,24 38,61 53,83 7,9 12,18 19,28 22,29 34,40 53,70 24,37 39,44 60,68 27,32 17,24 54,60 8,8 14,14 22,23 13,13 30,35 46,47 l 119,111 101,84 c 36,31 35,35 75,61 17,12 13,14 25,22 l 44,24 c 25,13 37,29 93,23 11,-2 48,-25 59,-32 25,-16 84,-59 105,-79 l 49,-42 c 30,-20 30,-25 51,-40 24,-18 124,-119 141,-136 l 90,-92 c 8,-9 13,-16 21,-24 30,-31 53,-63 85,-98 4,-4 6,-9 10,-13 4,-5 8,-8 12,-12 7,-9 48,-70 54,-81 4,-6 5,-10 8,-16 4,-6 6,-9 9,-14 15,-26 23,-35 13,-74 -2,-8 -10,-22 -14,-31 -5,-10 -12,-19 -18,-28 -12,-18 -26,-37 -38,-54 -20,-27 -102,-130 -123,-151 -32,-31 -69,-73 -98,-108 -11,-12 2,-3 -17,-18 l -18,-17 c -5,-5 -72,-71 -82,-78 -7,-5 -6,-2 -13,-10 -19,-19 -76,-71 -100,-86 -24,-16 -25,-24 -50,-41 -20,-13 -35,-27 -52,-39 -9,-7 -18,-13 -27,-18 -34,-19 -66,-35 -110,-26 z"
   id="path3697"
   inkscape:connector-curvature="0"
   style="fill:#fefefe" />
    <path
   class="fil3"
   d="m 2213,10450 c 7,23 14,46 21,69 9,26 34,-5 69,6 25,7 43,18 57,32 30,32 25,52 -8,82 -65,53 -254,76 -330,66 -57,-7 -173,-23 -213,-51 -7,-5 -20,-16 -25,-20 -21,-22 -16,-40 1,-60 24,-29 49,-38 84,-51 20,-7 46,-12 65,-21 l -34,-24 c -33,-21 -51,-41 -74,-37 -47,9 -80,25 -121,50 -13,7 -24,15 -34,22 -19,14 -17,10 -28,28 -17,29 -27,54 -7,86 15,24 36,41 64,52 15,6 25,11 39,19 22,12 106,31 133,35 125,21 245,21 369,-2 15,-2 28,-9 44,-11 38,-8 54,-16 84,-31 35,-19 80,-49 76,-95 -2,-16 -10,-29 -17,-39 -9,-12 -46,-40 -66,-47 15,-10 18,-4 31,-10 z"
   id="path3699"
   inkscape:connector-curvature="0"
   style="fill:#fefefe" />
    <path
   class="fil3"
   d="m 1947,10384 h 70 l -9,301 95,-1 -10,-300 80,-2 c -2,-11 -111,-307 -117,-315 z"
   id="path3701"
   inkscape:connector-curvature="0"
   style="fill:#fefefe" />
    <path
   class="fil3"
   d="m 1989,11072 c 16,6 108,3 132,4 l -14,-306 -104,-3 z"
   id="path3703"
   inkscape:connector-curvature="0"
   style="fill:#fefefe" />
    <path
   class="fil0"
   d="m 2467,11310 c 19,0 38,5 55,14 18,10 32,24 42,42 10,18 15,37 15,57 0,19 -5,38 -14,56 -11,18 -24,32 -42,42 -18,10 -37,15 -56,15 -20,0 -39,-5 -57,-15 -17,-10 -31,-24 -41,-42 -10,-18 -15,-37 -15,-56 0,-20 5,-39 15,-57 10,-18 24,-32 42,-42 18,-9 36,-14 56,-14 z m 0,22 c -16,0 -31,4 -45,12 -14,7 -25,19 -34,33 -8,15 -12,30 -12,46 0,16 4,31 12,45 8,14 19,26 34,34 14,8 29,12 45,12 16,0 31,-4 45,-12 14,-8 25,-20 33,-34 8,-14 12,-29 12,-45 0,-16 -4,-31 -12,-46 -8,-14 -19,-26 -34,-33 -14,-8 -29,-12 -44,-12 z m -51,151 v -120 h 24 c 23,0 35,1 38,1 8,0 15,2 19,5 4,2 8,6 11,11 3,5 5,11 5,17 0,9 -3,16 -9,22 -5,6 -13,10 -24,12 4,1 7,3 9,4 2,2 4,5 8,9 1,2 4,6 9,15 l 14,24 h -30 l -10,-19 c -7,-13 -13,-22 -17,-25 -4,-3 -10,-5 -17,-5 h -6 v 49 z m 24,-68 h 10 c 14,0 23,0 26,-1 3,-2 6,-3 8,-6 2,-3 3,-6 3,-9 0,-4 -1,-7 -3,-9 -2,-3 -5,-5 -8,-6 -4,-1 -12,-2 -26,-2 h -10 z"
   id="path3705"
   inkscape:connector-curvature="0"
   style="fill:#324388;fill-rule:nonzero" />
   </g>
  </g>
 </g>
</svg>