<?xml version="1.0" encoding="UTF-8" standalone="no"?>
<!-- Creator: CorelDRAW X7 -->

<svg
   xmlns:dc="http://purl.org/dc/elements/1.1/"
   xmlns:cc="http://creativecommons.org/ns#"
   xmlns:rdf="http://www.w3.org/1999/02/22-rdf-syntax-ns#"
   xmlns:svg="http://www.w3.org/2000/svg"
   xmlns="http://www.w3.org/2000/svg"
   xmlns:sodipodi="http://sodipodi.sourceforge.net/DTD/sodipodi-0.dtd"
   xmlns:inkscape="http://www.inkscape.org/namespaces/inkscape"
   xml:space="preserve"
   width="1052.335"
   height="188.925"
   version="1.1"
   style="clip-rule:evenodd;fill-rule:evenodd;image-rendering:optimizeQuality;shape-rendering:geometricPrecision;text-rendering:geometricPrecision"
   viewBox="0 0 10961.738 1967.9998"
   id="svg129"
   sodipodi:docname="ijg.svg"
   inkscape:version="0.92.2 (5c3e80d, 2017-08-06)"><metadata
     id="metadata133"><rdf:RDF><cc:Work
         rdf:about=""><dc:format>image/svg+xml</dc:format><dc:type
           rdf:resource="http://purl.org/dc/dcmitype/StillImage" /><dc:title></dc:title></cc:Work></rdf:RDF></metadata><sodipodi:namedview
     pagecolor="#ffffff"
     bordercolor="#666666"
     borderopacity="1"
     objecttolerance="10"
     gridtolerance="10"
     guidetolerance="10"
     inkscape:pageopacity="0"
     inkscape:pageshadow="2"
     inkscape:window-width="1600"
     inkscape:window-height="847"
     id="namedview131"
     showgrid="false"
     units="px"
     inkscape:zoom="0.12927914"
     inkscape:cx="623.62079"
     inkscape:cy="1531.5696"
     inkscape:window-x="-8"
     inkscape:window-y="-8"
     inkscape:window-maximized="1"
     inkscape:current-layer="svg129" /><defs
     id="defs12"><style
       type="text/css"
       id="style2"><![CDATA[
    .fil0 {fill:#029ADE}
    .fil2 {fill:#1D5486}
    .fil3 {fill:#FEFEFE;fill-rule:nonzero}
    .fil1 {fill:#F8D227;fill-rule:nonzero}
   ]]></style><mask
       id="id0"><linearGradient
         id="id1"
         gradientUnits="userSpaceOnUse"
         x1="3009.9199"
         y1="2039.14"
         x2="8826.96"
         y2="1823.59"><stop
           offset="0"
           style="stop-opacity:1; stop-color:white"
           id="stop4" /><stop
           offset="1"
           style="stop-opacity:0; stop-color:white"
           id="stop6" /></linearGradient><rect
         style="fill:url(#id1)"
         x="1072"
         y="1613"
         width="9692"
         height="637"
         id="rect9" /></mask></defs><g
     id="Layer_x0020_1"
     transform="translate(-1076.131,-278.0001)"><metadata
       id="CorelCorpID_0Corel-Layer" /><g
       id="_1662540731712"><polygon
         class="fil0"
         points="1076,278 12038,278 12038,2246 1076,2246 "
         id="polygon15"
         style="fill:#029ade" /><polygon
         class="fil1"
         points="1631,688 1631,1301 1471,1301 1471,688 "
         id="polygon17"
         style="fill:#f8d227;fill-rule:nonzero" /><path
         id="1"
         class="fil1"
         d="m 1845,798 -3,47 c 11,-19 25,-32 41,-42 16,-9 34,-14 55,-14 27,0 48,6 65,19 16,12 27,28 32,46 5,19 7,51 7,95 v 352 H 1889 V 953 c 0,-35 -1,-56 -3,-63 -2,-8 -9,-12 -19,-12 -11,0 -18,5 -21,13 -2,9 -4,32 -4,70 v 340 H 1690 V 798 Z"
         inkscape:connector-curvature="0"
         style="fill:#f8d227;fill-rule:nonzero" /><path
         id="2"
         class="fil1"
         d="m 2443,688 v 613 h -153 v -37 c -15,15 -30,27 -46,34 -16,8 -33,12 -51,12 -24,0 -44,-6 -62,-19 -17,-12 -29,-27 -33,-43 -5,-17 -8,-43 -8,-81 V 932 c 0,-38 3,-66 8,-82 4,-16 16,-30 33,-43 18,-12 39,-18 64,-18 19,0 36,4 52,10 16,7 30,18 43,31 V 688 Z m -153,237 c 0,-19 -1,-31 -5,-37 -3,-7 -9,-10 -19,-10 -9,0 -15,3 -18,9 -4,5 -5,18 -5,38 v 246 c 0,20 1,34 4,40 4,7 9,10 18,10 10,0 17,-4 20,-11 3,-7 5,-25 5,-53 z"
         inkscape:connector-curvature="0"
         style="fill:#f8d227;fill-rule:nonzero" /><path
         id="3"
         class="fil1"
         d="m 2843,975 v 123 c 0,45 -2,78 -7,99 -4,21 -14,41 -29,59 -15,19 -34,32 -57,41 -24,8 -50,13 -81,13 -33,0 -62,-4 -85,-11 -24,-8 -42,-19 -55,-34 -13,-15 -22,-33 -28,-55 -6,-21 -8,-53 -8,-96 V 986 c 0,-47 5,-83 15,-110 10,-26 28,-47 54,-63 27,-16 60,-24 101,-24 34,0 64,5 88,16 25,10 44,23 57,39 14,17 23,34 28,51 5,18 7,44 7,80 z m -153,-38 c 0,-26 -1,-42 -4,-49 -3,-6 -9,-10 -18,-10 -9,0 -15,4 -18,10 -3,7 -5,23 -5,49 v 227 c 0,23 2,39 5,46 3,7 9,11 18,11 9,0 15,-3 18,-10 3,-7 4,-21 4,-42 z"
         inkscape:connector-curvature="0"
         style="fill:#f8d227;fill-rule:nonzero" /><path
         id="4"
         class="fil1"
         d="m 3048,798 -2,47 c 11,-19 25,-32 41,-42 16,-9 34,-14 55,-14 27,0 48,6 65,19 16,12 27,28 32,46 5,19 7,51 7,95 v 352 H 3093 V 953 c 0,-35 -1,-56 -3,-63 -2,-8 -9,-12 -19,-12 -11,0 -18,5 -21,13 -2,9 -4,32 -4,70 v 340 H 2893 V 798 Z"
         inkscape:connector-curvature="0"
         style="fill:#f8d227;fill-rule:nonzero" /><path
         id="5"
         class="fil1"
         d="m 3645,1058 h -198 v 109 c 0,23 1,37 5,44 3,7 9,10 19,10 11,0 19,-5 23,-13 4,-9 6,-26 6,-51 v -66 h 145 v 37 c 0,31 -2,55 -6,71 -4,17 -13,35 -27,54 -15,19 -33,33 -55,43 -22,9 -50,14 -83,14 -32,0 -61,-5 -86,-14 -24,-10 -44,-22 -57,-39 -14,-16 -24,-34 -29,-53 -5,-20 -8,-48 -8,-86 V 972 c 0,-44 6,-79 18,-104 12,-26 31,-45 58,-59 27,-13 58,-20 93,-20 43,0 79,8 107,25 27,16 47,37 58,64 12,27 17,65 17,114 z m -153,-81 v -37 c 0,-26 -1,-43 -4,-50 -3,-8 -8,-12 -17,-12 -11,0 -18,3 -20,10 -3,6 -4,24 -4,52 v 37 z"
         inkscape:connector-curvature="0"
         style="fill:#f8d227;fill-rule:nonzero" /><path
         id="6"
         class="fil1"
         d="m 4007,959 h -135 v -27 c 0,-24 -1,-38 -4,-44 -2,-7 -9,-10 -20,-10 -8,0 -15,3 -19,9 -4,5 -6,14 -6,25 0,16 1,27 3,34 2,7 8,15 19,24 11,8 33,21 66,37 44,22 73,42 87,62 14,19 21,47 21,83 0,41 -6,72 -16,93 -11,21 -28,37 -53,48 -25,11 -55,17 -90,17 -39,0 -72,-6 -100,-18 -27,-12 -46,-29 -57,-49 -10,-21 -15,-52 -15,-94 v -24 h 135 v 31 c 0,27 2,45 5,53 4,8 11,12 21,12 10,0 18,-3 22,-8 4,-6 7,-17 7,-35 0,-24 -3,-39 -9,-45 -5,-6 -35,-24 -88,-54 -45,-25 -73,-48 -82,-68 -10,-21 -15,-45 -15,-73 0,-41 5,-70 16,-89 10,-19 28,-34 54,-44 25,-11 54,-16 88,-16 33,0 62,4 85,13 23,8 41,19 53,33 13,14 20,27 23,39 3,12 4,30 4,56 z"
         inkscape:connector-curvature="0"
         style="fill:#f8d227;fill-rule:nonzero" /><path
         id="7"
         class="fil1"
         d="m 4217,688 v 79 h -157 v -79 z m 0,110 v 503 H 4060 V 798 Z"
         inkscape:connector-curvature="0"
         style="fill:#f8d227;fill-rule:nonzero" /><path
         id="8"
         class="fil1"
         d="m 4408,993 h -143 v -34 c 0,-39 4,-69 13,-90 9,-21 27,-39 54,-56 27,-16 62,-24 106,-24 51,0 90,9 116,28 27,18 42,40 48,67 5,27 8,81 8,164 v 253 h -149 v -45 c -9,18 -22,31 -36,40 -15,9 -33,14 -53,14 -27,0 -51,-8 -74,-23 -22,-15 -33,-48 -33,-98 v -42 c 0,-37 6,-63 18,-76 12,-14 41,-30 88,-48 50,-20 77,-33 81,-40 3,-7 5,-21 5,-42 0,-26 -2,-43 -6,-51 -4,-8 -10,-12 -20,-12 -10,0 -16,4 -19,10 -3,7 -4,24 -4,52 z m 49,69 c -25,18 -39,33 -43,45 -4,12 -6,29 -6,52 0,26 2,43 5,50 4,8 11,12 21,12 9,0 16,-3 19,-9 3,-6 4,-22 4,-47 z"
         inkscape:connector-curvature="0"
         style="fill:#f8d227;fill-rule:nonzero" /><path
         id="9"
         class="fil1"
         d="m 4817,798 -2,47 c 11,-19 25,-32 41,-42 16,-9 34,-14 55,-14 26,0 48,6 64,19 17,12 28,28 33,46 4,19 7,51 7,95 v 352 H 4862 V 953 c 0,-35 -1,-56 -3,-63 -3,-8 -9,-12 -19,-12 -11,0 -18,5 -21,13 -3,9 -4,32 -4,70 v 340 H 4662 V 798 Z"
         inkscape:connector-curvature="0"
         style="fill:#f8d227;fill-rule:nonzero" /><path
         id="10"
         class="fil1"
         d="m 5403,688 v 409 c 0,62 0,101 -2,119 -1,17 -7,33 -17,47 -10,14 -24,24 -42,29 -17,6 -43,9 -79,9 h -79 v -108 c 9,1 16,1 21,1 11,0 20,-2 26,-8 6,-5 10,-12 11,-20 1,-8 2,-24 2,-47 V 688 Z"
         inkscape:connector-curvature="0"
         style="fill:#f8d227;fill-rule:nonzero" /><path
         id="11"
         class="fil1"
         d="m 5806,975 v 123 c 0,45 -2,78 -7,99 -4,21 -14,41 -29,59 -15,19 -34,32 -57,41 -23,8 -50,13 -80,13 -34,0 -63,-4 -86,-11 -24,-8 -42,-19 -55,-34 -13,-15 -22,-33 -28,-55 -5,-21 -8,-53 -8,-96 V 986 c 0,-47 5,-83 15,-110 10,-26 28,-47 55,-63 26,-16 59,-24 100,-24 34,0 64,5 89,16 24,10 43,23 56,39 14,17 23,34 28,51 5,18 7,44 7,80 z m -152,-38 c 0,-26 -2,-42 -5,-49 -2,-6 -8,-10 -18,-10 -9,0 -15,4 -18,10 -3,7 -4,23 -4,49 v 227 c 0,23 1,39 4,46 3,7 9,11 18,11 9,0 15,-3 18,-10 3,-7 5,-21 5,-42 z"
         inkscape:connector-curvature="0"
         style="fill:#f8d227;fill-rule:nonzero" /><path
         id="12"
         class="fil1"
         d="m 6206,798 v 503 h -155 l 3,-42 c -11,17 -24,30 -40,38 -15,9 -33,13 -53,13 -23,0 -42,-4 -57,-12 -15,-8 -26,-19 -34,-32 -7,-14 -11,-28 -13,-42 -2,-15 -3,-44 -3,-87 V 798 h 153 v 342 c 0,39 1,62 4,70 2,7 9,11 19,11 11,0 18,-4 20,-12 2,-7 4,-32 4,-73 V 798 Z"
         inkscape:connector-curvature="0"
         style="fill:#f8d227;fill-rule:nonzero" /><path
         id="13"
         class="fil1"
         d="m 6413,798 -5,67 c 22,-48 55,-73 97,-76 v 177 c -28,0 -49,4 -62,11 -13,8 -21,18 -24,32 -3,13 -5,44 -5,93 v 199 H 6262 V 798 Z"
         inkscape:connector-curvature="0"
         style="fill:#f8d227;fill-rule:nonzero" /><path
         id="14"
         class="fil1"
         d="m 6694,798 -2,47 c 11,-19 24,-32 40,-42 16,-9 35,-14 56,-14 26,0 47,6 64,19 17,12 27,28 32,46 5,19 7,51 7,95 v 352 H 6739 V 953 c 0,-35 -1,-56 -4,-63 -2,-8 -8,-12 -19,-12 -11,0 -18,5 -20,13 -3,9 -4,32 -4,70 v 340 H 6539 V 798 Z"
         inkscape:connector-curvature="0"
         style="fill:#f8d227;fill-rule:nonzero" /><path
         id="15"
         class="fil1"
         d="m 7080,993 h -143 v -34 c 0,-39 5,-69 14,-90 8,-21 27,-39 54,-56 27,-16 62,-24 105,-24 51,0 90,9 117,28 26,18 42,40 47,67 5,27 8,81 8,164 v 253 h -149 v -45 c -9,18 -21,31 -36,40 -15,9 -32,14 -53,14 -27,0 -51,-8 -73,-23 -23,-15 -34,-48 -34,-98 v -42 c 0,-37 6,-63 18,-76 12,-14 41,-30 88,-48 51,-20 77,-33 81,-40 3,-7 5,-21 5,-42 0,-26 -2,-43 -6,-51 -4,-8 -10,-12 -19,-12 -11,0 -17,4 -20,10 -2,7 -4,24 -4,52 z m 49,69 c -24,18 -39,33 -43,45 -4,12 -6,29 -6,52 0,26 2,43 6,50 3,8 10,12 20,12 10,0 16,-3 19,-9 3,-6 4,-22 4,-47 z"
         inkscape:connector-curvature="0"
         style="fill:#f8d227;fill-rule:nonzero" /><polygon
         id="16"
         class="fil1"
         points="7492,688 7492,1301 7335,1301 7335,688 "
         style="fill:#f8d227;fill-rule:nonzero" /><path
         id="17"
         class="fil1"
         d="m 8029,975 v 123 c 0,45 -2,78 -7,99 -4,21 -14,41 -29,59 -15,19 -34,32 -57,41 -24,8 -50,13 -81,13 -33,0 -62,-4 -85,-11 -24,-8 -42,-19 -55,-34 -13,-15 -22,-33 -28,-55 -5,-21 -8,-53 -8,-96 V 986 c 0,-47 5,-83 15,-110 10,-26 28,-47 54,-63 27,-16 60,-24 101,-24 34,0 64,5 88,16 25,10 44,23 57,39 14,17 23,34 28,51 5,18 7,44 7,80 z m -153,-38 c 0,-26 -1,-42 -4,-49 -3,-6 -9,-10 -18,-10 -9,0 -15,4 -18,10 -3,7 -5,23 -5,49 v 227 c 0,23 2,39 5,46 3,7 9,11 18,11 9,0 15,-3 18,-10 3,-7 4,-21 4,-42 z"
         inkscape:connector-curvature="0"
         style="fill:#f8d227;fill-rule:nonzero" /><path
         id="18"
         class="fil1"
         d="m 8275,688 v 77 c -32,0 -51,2 -57,5 -5,2 -8,11 -8,25 v 16 h 65 v 80 h -37 v 410 H 8085 V 891 h -31 v -80 h 31 c 0,-33 1,-56 3,-67 3,-11 8,-21 17,-30 9,-8 22,-15 38,-20 16,-4 41,-6 76,-6 z"
         inkscape:connector-curvature="0"
         style="fill:#f8d227;fill-rule:nonzero" /><path
         id="19"
         class="fil1"
         d="M 8817,955 H 8657 V 849 c 0,-31 -2,-51 -5,-58 -3,-8 -11,-12 -22,-12 -13,0 -21,5 -25,14 -3,9 -5,30 -5,61 v 284 c 0,30 2,49 5,58 4,9 11,14 24,14 11,0 19,-5 23,-14 3,-9 5,-30 5,-64 v -77 h 160 v 24 c 0,63 -5,108 -14,135 -9,27 -29,50 -59,70 -31,20 -69,30 -114,30 -46,0 -85,-9 -115,-26 -30,-17 -50,-40 -60,-70 -10,-30 -15,-75 -15,-135 V 904 c 0,-44 2,-77 5,-99 3,-22 12,-43 27,-64 15,-20 36,-36 62,-48 27,-12 57,-18 92,-18 47,0 86,9 116,27 31,19 51,41 60,68 10,27 15,70 15,127 z"
         inkscape:connector-curvature="0"
         style="fill:#f8d227;fill-rule:nonzero" /><path
         id="20"
         class="fil1"
         d="m 9022,688 v 138 c 13,-12 27,-22 42,-28 16,-6 32,-9 50,-9 26,0 49,7 68,21 19,13 30,29 34,47 4,18 7,50 7,97 v 347 H 9070 V 947 c 0,-29 -2,-48 -5,-56 -3,-9 -9,-13 -19,-13 -10,0 -16,5 -19,13 -4,9 -5,26 -5,51 v 359 H 8869 V 688 Z"
         inkscape:connector-curvature="0"
         style="fill:#f8d227;fill-rule:nonzero" /><path
         id="21"
         class="fil1"
         d="m 9622,1058 h -199 v 109 c 0,23 2,37 5,44 3,7 10,10 19,10 12,0 20,-5 24,-13 4,-9 6,-26 6,-51 v -66 h 145 v 37 c 0,31 -2,55 -6,71 -4,17 -13,35 -28,54 -14,19 -32,33 -55,43 -22,9 -49,14 -83,14 -32,0 -60,-5 -85,-14 -25,-10 -44,-22 -58,-39 -14,-16 -23,-34 -28,-53 -6,-20 -8,-48 -8,-86 V 972 c 0,-44 5,-79 17,-104 12,-26 32,-45 59,-59 27,-13 58,-20 93,-20 43,0 78,8 106,25 28,16 48,37 59,64 11,27 17,65 17,114 z m -153,-81 v -37 c 0,-26 -2,-43 -4,-50 -3,-8 -9,-12 -18,-12 -11,0 -17,3 -20,10 -3,6 -4,24 -4,52 v 37 z"
         inkscape:connector-curvature="0"
         style="fill:#f8d227;fill-rule:nonzero" /><path
         id="22"
         class="fil1"
         d="m 9822,798 -2,48 c 12,-19 26,-33 42,-43 17,-9 35,-14 56,-14 41,0 73,19 97,57 12,-19 27,-33 43,-43 16,-9 34,-14 54,-14 26,0 47,6 64,19 17,13 28,28 33,46 5,19 7,48 7,90 v 357 h -148 V 973 c 0,-43 -1,-69 -4,-79 -3,-11 -10,-16 -21,-16 -10,0 -17,5 -21,15 -3,10 -4,37 -4,80 v 328 H 9870 V 982 c 0,-50 -2,-79 -4,-89 -2,-10 -9,-15 -20,-15 -7,0 -12,3 -17,8 -5,5 -8,11 -8,19 -1,7 -1,23 -1,47 v 349 H 9672 V 798 Z"
         inkscape:connector-curvature="0"
         style="fill:#f8d227;fill-rule:nonzero" /><path
         id="23"
         class="fil1"
         d="m 10426,688 v 79 h -157 v -79 z m 0,110 v 503 h -157 V 798 Z"
         inkscape:connector-curvature="0"
         style="fill:#f8d227;fill-rule:nonzero" /><path
         id="24"
         class="fil1"
         d="m 10793,959 h -135 v -27 c 0,-24 -1,-38 -4,-44 -2,-7 -9,-10 -19,-10 -9,0 -15,3 -20,9 -4,5 -6,14 -6,25 0,16 1,27 3,34 2,7 9,15 19,24 11,8 33,21 66,37 44,22 73,42 87,62 14,19 21,47 21,83 0,41 -5,72 -16,93 -11,21 -28,37 -53,48 -25,11 -55,17 -90,17 -39,0 -72,-6 -99,-18 -28,-12 -47,-29 -57,-49 -11,-21 -16,-52 -16,-94 v -24 h 136 v 31 c 0,27 1,45 5,53 3,8 10,12 20,12 11,0 18,-3 22,-8 5,-6 7,-17 7,-35 0,-24 -3,-39 -8,-45 -6,-6 -36,-24 -89,-54 -45,-25 -72,-48 -82,-68 -10,-21 -15,-45 -15,-73 0,-41 5,-70 16,-89 11,-19 29,-34 54,-44 25,-11 55,-16 88,-16 33,0 62,4 85,13 23,8 41,19 54,33 12,14 20,27 22,39 3,12 4,30 4,56 z"
         inkscape:connector-curvature="0"
         style="fill:#f8d227;fill-rule:nonzero" /><path
         id="25"
         class="fil1"
         d="m 11006,732 v 79 h 43 v 80 h -43 v 268 c 0,33 2,52 5,55 4,4 18,6 44,6 v 81 h -62 c -35,0 -60,-2 -75,-5 -15,-3 -28,-9 -39,-20 -11,-10 -19,-22 -21,-36 -3,-13 -5,-45 -5,-95 V 891 h -32 v -80 h 32 v -79 z"
         inkscape:connector-curvature="0"
         style="fill:#f8d227;fill-rule:nonzero" /><path
         id="26"
         class="fil1"
         d="m 11234,798 -6,67 c 23,-48 55,-73 97,-76 v 177 c -28,0 -49,4 -62,11 -13,8 -21,18 -24,32 -3,13 -5,44 -5,93 v 199 h -152 V 798 Z"
         inkscape:connector-curvature="0"
         style="fill:#f8d227;fill-rule:nonzero" /><path
         id="27"
         class="fil1"
         d="m 11693,798 -44,364 c -7,57 -13,97 -17,118 -5,20 -13,38 -24,51 -10,14 -25,24 -45,30 -19,7 -50,10 -92,10 h -93 v -81 c 24,0 39,-1 46,-3 7,-2 11,-8 11,-16 0,-4 -4,-22 -10,-53 l -84,-420 h 139 l 50,340 25,-340 z"
         inkscape:connector-curvature="0"
         style="fill:#f8d227;fill-rule:nonzero" /><path
         class="fil2"
         style="fill:#1d5486"
         d="m 1076,1616 h 8559 c 496,0 1126,284 1126,630 v 0 H 1076 Z"
         mask="url(#id0)"
         id="path46"
         inkscape:connector-curvature="0" /><path
         class="fil3"
         d="m 1600,1866 c 0,11 -1,20 -5,29 -3,8 -8,15 -15,21 -6,6 -14,11 -24,14 -9,3 -20,5 -33,5 h -24 v 76 c 0,1 0,1 -1,2 0,1 -1,1 -2,2 -1,0 -3,0 -4,1 -2,0 -4,0 -7,0 -3,0 -5,0 -7,0 -2,-1 -3,-1 -4,-1 -1,-1 -2,-1 -2,-2 -1,-1 -1,-1 -1,-2 v -195 c 0,-4 1,-7 3,-9 3,-2 5,-3 8,-3 h 45 c 5,0 9,1 13,1 4,0 9,1 15,2 6,2 11,4 17,7 6,4 11,8 15,13 5,5 8,11 10,17 2,7 3,14 3,22 z m -29,2 c 0,-8 -2,-15 -5,-21 -3,-6 -7,-10 -12,-13 -5,-3 -9,-5 -14,-5 -5,-1 -10,-2 -15,-2 h -26 v 85 h 25 c 9,0 16,-1 21,-3 6,-2 11,-5 14,-9 4,-4 7,-9 9,-14 2,-6 3,-11 3,-18 z"
         id="path48"
         inkscape:connector-curvature="0"
         style="fill:#fefefe;fill-rule:nonzero" /><path
         id="path50"
         class="fil3"
         d="m 1765,2011 c 0,1 0,2 0,2 0,1 -1,1 -2,2 -1,0 -2,0 -4,1 -2,0 -3,0 -6,0 -2,0 -4,0 -6,0 -1,-1 -3,-1 -4,-1 0,-1 -1,-1 -1,-2 -1,0 -1,-1 -1,-2 v -19 c -8,9 -17,15 -25,20 -8,4 -16,6 -24,6 -10,0 -18,-2 -25,-5 -7,-3 -12,-8 -16,-13 -4,-6 -7,-12 -9,-20 -2,-7 -3,-16 -3,-27 v -89 c 0,0 0,-1 1,-2 0,0 1,-1 2,-1 1,-1 2,-1 4,-1 2,-1 4,-1 7,-1 2,0 4,0 6,1 2,0 3,0 4,1 1,0 2,1 2,1 1,1 1,2 1,2 v 86 c 0,8 1,15 2,20 1,6 3,10 6,14 2,3 6,6 9,8 4,2 9,3 14,3 7,0 14,-2 20,-7 7,-5 14,-12 21,-21 v -103 c 0,0 1,-1 1,-2 0,0 1,-1 2,-1 1,-1 3,-1 4,-1 2,-1 4,-1 7,-1 3,0 5,0 6,1 2,0 4,0 5,1 1,0 1,1 2,1 0,1 0,2 0,2 z"
         inkscape:connector-curvature="0"
         style="fill:#fefefe;fill-rule:nonzero" /><path
         id="path52"
         class="fil3"
         d="m 1950,1936 c 0,12 -1,24 -4,34 -3,10 -7,19 -12,26 -6,7 -12,13 -20,16 -8,4 -17,6 -27,6 -5,0 -9,0 -13,-1 -4,-1 -8,-3 -11,-5 -4,-2 -8,-4 -12,-8 -4,-3 -8,-7 -12,-11 v 18 c 0,1 0,2 -1,2 0,1 -1,1 -2,2 -1,0 -2,0 -3,1 -2,0 -4,0 -6,0 -2,0 -4,0 -6,0 -1,-1 -2,-1 -3,-1 -1,-1 -2,-1 -2,-2 -1,0 -1,-1 -1,-2 v -217 c 0,-1 0,-2 1,-3 0,0 1,-1 2,-1 1,-1 2,-1 4,-1 2,-1 4,-1 7,-1 2,0 5,0 6,1 2,0 3,0 4,1 1,0 2,1 3,1 0,1 0,2 0,3 v 87 c 5,-4 9,-8 13,-11 4,-3 8,-6 12,-8 4,-1 8,-3 11,-4 4,-1 8,-1 13,-1 10,0 19,2 27,6 8,5 14,10 18,17 5,7 9,16 11,25 2,10 3,20 3,31 z m -28,3 c 0,-8 -1,-15 -2,-22 -1,-7 -3,-13 -6,-19 -3,-5 -6,-10 -11,-13 -5,-3 -10,-5 -17,-5 -4,0 -7,1 -11,1 -3,1 -6,3 -10,5 -3,3 -7,6 -11,9 -4,4 -8,8 -12,14 v 58 c 8,9 15,16 21,21 7,5 14,7 21,7 7,0 13,-2 18,-5 4,-3 8,-7 11,-13 3,-5 6,-11 7,-18 1,-7 2,-13 2,-20 z"
         inkscape:connector-curvature="0"
         style="fill:#fefefe;fill-rule:nonzero" /><path
         id="path54"
         class="fil3"
         d="m 2017,2011 c 0,1 0,2 0,2 -1,1 -1,1 -2,2 -1,0 -3,0 -5,1 -1,0 -3,0 -6,0 -3,0 -5,0 -7,0 -2,-1 -3,-1 -4,-1 -1,-1 -2,-1 -2,-2 0,0 -1,-1 -1,-2 v -217 c 0,-1 1,-2 1,-3 0,0 1,-1 2,-1 1,-1 2,-1 4,-1 2,-1 4,-1 7,-1 3,0 5,0 6,1 2,0 4,0 5,1 1,0 1,1 2,1 0,1 0,2 0,3 z"
         inkscape:connector-curvature="0"
         style="fill:#fefefe;fill-rule:nonzero" /><path
         id="path56"
         class="fil3"
         d="m 2094,2011 c 0,1 0,2 -1,2 0,1 -1,1 -2,2 -1,0 -2,0 -4,1 -2,0 -4,0 -7,0 -2,0 -5,0 -6,0 -2,-1 -3,-1 -4,-1 -2,-1 -2,-1 -3,-2 0,0 0,-1 0,-2 v -147 c 0,0 0,-1 0,-2 1,0 1,-1 3,-1 1,-1 2,-1 4,-1 1,-1 4,-1 6,-1 3,0 5,0 7,1 2,0 3,0 4,1 1,0 2,1 2,1 1,1 1,2 1,2 z m 3,-196 c 0,6 -1,11 -4,13 -2,2 -7,3 -13,3 -6,0 -11,-1 -13,-3 -2,-2 -4,-6 -4,-13 0,-6 2,-10 4,-13 2,-2 7,-3 13,-3 7,0 11,1 13,3 3,3 4,7 4,13 z"
         inkscape:connector-curvature="0"
         style="fill:#fefefe;fill-rule:nonzero" /><path
         id="path58"
         class="fil3"
         d="m 2235,1971 c 0,7 -1,14 -4,20 -3,6 -7,11 -12,15 -5,4 -11,7 -18,9 -7,2 -15,3 -23,3 -5,0 -10,0 -15,-1 -5,-1 -9,-2 -13,-3 -3,-1 -7,-3 -9,-4 -3,-1 -5,-3 -6,-4 -1,-1 -2,-2 -3,-4 0,-2 0,-5 0,-8 0,-2 0,-4 0,-5 0,-2 0,-3 1,-4 0,-1 1,-1 1,-2 1,0 1,0 2,0 1,0 3,0 5,2 3,1 6,3 9,5 3,1 8,3 12,4 5,2 10,3 16,3 5,0 9,-1 13,-2 3,-1 6,-2 9,-4 3,-2 5,-4 6,-7 2,-3 3,-7 3,-11 0,-4 -1,-8 -4,-10 -2,-3 -4,-6 -8,-8 -3,-2 -7,-4 -12,-6 -4,-1 -8,-3 -13,-5 -5,-2 -9,-4 -13,-6 -5,-2 -9,-5 -12,-9 -4,-3 -6,-7 -9,-12 -2,-4 -3,-10 -3,-17 0,-5 1,-11 4,-16 2,-5 5,-10 10,-14 4,-4 10,-7 16,-9 7,-3 15,-4 24,-4 4,0 8,0 11,1 4,1 8,2 11,3 3,1 6,2 8,3 2,1 4,2 5,3 1,1 2,2 2,2 1,1 1,2 1,3 0,0 1,1 1,2 0,2 0,3 0,5 0,2 0,3 0,5 0,1 -1,2 -1,3 0,1 -1,1 -1,2 -1,0 -2,0 -2,0 -1,0 -3,0 -5,-1 -1,-2 -4,-3 -7,-4 -3,-2 -6,-3 -10,-4 -4,-1 -9,-2 -14,-2 -4,0 -8,1 -12,2 -3,1 -6,2 -8,4 -2,2 -4,4 -5,7 -1,2 -2,5 -2,8 0,4 1,8 3,11 2,3 5,5 9,7 3,2 7,4 12,6 4,2 9,4 13,5 5,2 9,4 14,7 4,2 8,5 12,8 3,3 6,7 8,12 2,4 3,10 3,16 z"
         inkscape:connector-curvature="0"
         style="fill:#fefefe;fill-rule:nonzero" /><path
         id="path60"
         class="fil3"
         d="m 2400,2011 c 0,1 -1,2 -1,2 0,1 -1,1 -2,2 -1,0 -2,0 -4,1 -2,0 -4,0 -7,0 -2,0 -5,0 -6,0 -2,-1 -4,-1 -5,-1 -1,-1 -1,-1 -2,-2 0,0 0,-1 0,-2 v -86 c 0,-8 -1,-15 -2,-20 -2,-5 -3,-10 -6,-13 -2,-4 -6,-7 -10,-9 -3,-2 -8,-3 -13,-3 -7,0 -14,3 -20,8 -7,4 -14,11 -21,21 v 102 c 0,1 -1,2 -1,2 0,1 -1,1 -2,2 -1,0 -2,0 -4,1 -2,0 -4,0 -7,0 -3,0 -5,0 -6,0 -2,-1 -4,-1 -5,-1 -1,-1 -1,-1 -2,-2 0,0 0,-1 0,-2 v -217 c 0,-1 0,-2 0,-3 1,0 1,-1 2,-1 1,-1 3,-1 5,-1 1,-1 3,-1 6,-1 3,0 5,0 7,1 2,0 3,0 4,1 1,0 2,1 2,1 0,1 1,2 1,3 v 87 c 7,-8 15,-14 23,-18 8,-4 16,-6 23,-6 10,0 18,2 25,5 7,3 12,8 16,13 4,6 7,12 9,20 2,7 3,16 3,27 z"
         inkscape:connector-curvature="0"
         style="fill:#fefefe;fill-rule:nonzero" /><path
         id="path62"
         class="fil3"
         d="m 2573,1931 c 0,5 -1,8 -3,9 -2,2 -4,3 -7,3 h -96 c 0,8 1,16 2,22 2,7 5,12 8,17 4,5 9,8 15,11 6,2 14,3 23,3 6,0 13,0 18,-1 6,-1 10,-3 14,-4 4,-2 7,-3 10,-4 3,-1 4,-2 6,-2 1,0 1,1 2,1 0,0 1,1 1,2 0,0 1,1 1,3 0,1 0,3 0,5 0,1 0,2 0,3 0,1 0,2 0,3 -1,1 -1,2 -1,2 -1,1 -1,2 -2,2 0,1 -2,2 -5,3 -3,1 -7,3 -11,4 -5,1 -10,2 -17,3 -6,2 -12,2 -19,2 -12,0 -23,-2 -32,-5 -9,-3 -16,-8 -23,-15 -6,-7 -10,-15 -13,-25 -4,-10 -5,-21 -5,-35 0,-12 1,-24 5,-34 3,-10 8,-18 14,-25 6,-7 13,-13 22,-16 9,-4 18,-6 29,-6 12,0 21,2 29,6 9,3 15,8 20,14 6,7 9,14 12,22 2,9 3,18 3,27 z m -27,-8 c 1,-14 -2,-25 -9,-33 -7,-8 -16,-12 -29,-12 -7,0 -13,1 -18,4 -5,2 -9,6 -12,10 -4,4 -6,9 -8,14 -2,6 -3,11 -3,17 z"
         inkscape:connector-curvature="0"
         style="fill:#fefefe;fill-rule:nonzero" /><path
         id="path64"
         class="fil3"
         d="m 2740,2011 c 0,1 0,2 -1,2 0,1 -1,1 -2,2 0,0 -2,0 -3,1 -2,0 -4,0 -6,0 -2,0 -4,0 -5,0 -2,-1 -3,-1 -4,-1 -1,-1 -2,-1 -2,-2 -1,0 -1,-1 -1,-2 v -20 c -8,9 -16,15 -24,20 -8,5 -17,7 -27,7 -11,0 -20,-2 -28,-6 -7,-4 -13,-10 -18,-17 -5,-7 -8,-16 -10,-25 -3,-10 -4,-20 -4,-31 0,-12 2,-24 4,-34 3,-10 7,-19 12,-26 6,-7 12,-12 20,-16 8,-4 17,-6 27,-6 9,0 17,2 24,6 7,3 14,9 21,16 v -85 c 0,-1 0,-1 1,-2 0,-1 1,-1 2,-2 1,0 2,0 4,-1 2,0 4,0 6,0 3,0 5,0 7,0 2,1 3,1 4,1 1,1 2,1 2,2 1,1 1,1 1,2 z m -27,-103 c -7,-9 -14,-16 -21,-21 -7,-5 -14,-7 -21,-7 -7,0 -13,2 -18,5 -4,3 -8,7 -11,13 -3,5 -5,11 -7,18 -1,7 -2,13 -2,20 0,8 1,15 2,22 1,7 3,13 6,19 3,5 6,10 11,13 5,3 11,5 18,5 3,0 7,0 10,-1 3,-1 7,-3 10,-5 4,-3 7,-6 11,-9 4,-4 8,-8 12,-14 z"
         inkscape:connector-curvature="0"
         style="fill:#fefefe;fill-rule:nonzero" /><path
         id="path66"
         class="fil3"
         d="m 3000,1936 c 0,12 -2,24 -4,34 -3,10 -7,19 -13,26 -5,7 -12,13 -19,16 -8,4 -17,6 -27,6 -5,0 -9,0 -13,-1 -4,-1 -8,-3 -12,-5 -3,-2 -7,-4 -11,-8 -4,-3 -8,-7 -12,-11 v 18 c 0,1 0,2 -1,2 0,1 -1,1 -2,2 -1,0 -2,0 -3,1 -2,0 -4,0 -6,0 -2,0 -4,0 -6,0 -1,-1 -2,-1 -3,-1 -1,-1 -2,-1 -2,-2 -1,0 -1,-1 -1,-2 v -217 c 0,-1 0,-2 1,-3 0,0 1,-1 2,-1 1,-1 2,-1 4,-1 2,-1 4,-1 7,-1 2,0 4,0 6,1 2,0 3,0 4,1 1,0 2,1 2,1 1,1 1,2 1,3 v 87 c 4,-4 9,-8 13,-11 4,-3 8,-6 12,-8 4,-1 7,-3 11,-4 4,-1 8,-1 13,-1 10,0 19,2 27,6 7,5 13,10 18,17 5,7 8,16 11,25 2,10 3,20 3,31 z m -28,3 c 0,-8 -1,-15 -2,-22 -1,-7 -3,-13 -6,-19 -3,-5 -6,-10 -11,-13 -5,-3 -11,-5 -18,-5 -3,0 -6,1 -10,1 -3,1 -7,3 -10,5 -4,3 -7,6 -11,9 -4,4 -8,8 -12,14 v 58 c 7,9 15,16 21,21 7,5 14,7 21,7 7,0 13,-2 18,-5 4,-3 8,-7 11,-13 3,-5 5,-11 7,-18 1,-7 2,-13 2,-20 z"
         inkscape:connector-curvature="0"
         style="fill:#fefefe;fill-rule:nonzero" /><path
         id="path68"
         class="fil3"
         d="m 3105,2015 -19,54 c -1,2 -3,3 -5,4 -3,1 -7,1 -12,1 -3,0 -6,0 -7,0 -2,0 -3,-1 -4,-1 -1,-1 -2,-2 -2,-3 0,-1 0,-2 1,-4 l 20,-51 c -1,0 -2,-1 -3,-2 0,-1 -1,-2 -1,-3 l -53,-140 c 0,-2 -1,-4 -1,-6 0,-1 1,-2 1,-3 1,0 3,-1 5,-1 2,-1 4,-1 7,-1 4,0 6,0 8,1 2,0 3,0 5,1 1,0 1,1 2,1 0,1 1,2 1,4 l 42,117 h 1 l 40,-118 c 1,-2 2,-3 2,-4 1,-1 3,-1 5,-1 1,-1 4,-1 8,-1 3,0 5,0 7,1 2,0 3,1 4,1 1,1 2,2 2,3 0,2 -1,3 -1,5 z"
         inkscape:connector-curvature="0"
         style="fill:#fefefe;fill-rule:nonzero" /><path
         id="path70"
         class="fil3"
         d="m 3408,1985 c 0,2 0,4 0,5 0,1 0,2 0,3 -1,1 -1,2 -1,3 -1,1 -2,2 -3,3 -1,1 -3,2 -6,5 -4,2 -8,4 -13,6 -6,2 -12,4 -18,5 -7,2 -14,3 -22,3 -14,0 -26,-3 -37,-7 -11,-5 -21,-11 -28,-20 -8,-9 -14,-20 -18,-33 -4,-13 -7,-28 -7,-46 0,-17 3,-33 7,-46 5,-14 11,-26 19,-35 8,-10 18,-17 29,-22 12,-5 24,-7 38,-7 6,0 12,0 18,1 6,2 11,3 16,5 5,1 9,3 13,6 4,2 6,4 8,5 1,2 2,3 3,4 0,0 1,1 1,2 0,1 0,2 1,4 0,1 0,3 0,5 0,2 0,4 -1,5 0,2 0,3 -1,4 0,1 -1,2 -1,3 -1,0 -1,0 -2,0 -2,0 -4,-1 -7,-3 -2,-2 -6,-4 -10,-7 -5,-2 -10,-5 -16,-7 -6,-2 -14,-3 -22,-3 -10,0 -18,2 -26,6 -8,3 -14,9 -20,16 -5,7 -9,16 -12,27 -3,10 -5,22 -5,36 0,13 2,25 4,35 3,11 7,19 13,26 5,7 12,12 20,16 8,3 17,5 26,5 9,0 16,-1 23,-3 6,-2 11,-4 16,-7 4,-3 8,-5 10,-7 3,-2 6,-3 7,-3 1,0 2,0 2,1 1,0 1,0 1,1 1,1 1,3 1,4 0,2 0,4 0,6 z"
         inkscape:connector-curvature="0"
         style="fill:#fefefe;fill-rule:nonzero" /><path
         id="path72"
         class="fil3"
         d="m 3568,2011 c 0,1 0,2 0,2 -1,1 -1,1 -2,2 -1,0 -3,0 -4,1 -2,0 -4,0 -7,0 -3,0 -5,0 -7,0 -1,-1 -3,-1 -4,-1 -1,-1 -1,-1 -2,-2 0,0 -1,-1 -1,-2 v -86 c 0,-8 0,-15 -1,-20 -2,-5 -4,-10 -6,-13 -3,-4 -6,-7 -10,-9 -4,-2 -8,-3 -13,-3 -7,0 -14,3 -20,8 -7,4 -14,11 -22,21 v 102 c 0,1 0,2 0,2 -1,1 -1,1 -2,2 -1,0 -3,0 -4,1 -2,0 -4,0 -7,0 -3,0 -5,0 -7,0 -1,-1 -3,-1 -4,-1 -1,-1 -2,-1 -2,-2 0,0 -1,-1 -1,-2 v -217 c 0,-1 1,-2 1,-3 0,0 1,-1 2,-1 1,-1 3,-1 4,-1 2,-1 4,-1 7,-1 3,0 5,0 7,1 1,0 3,0 4,1 1,0 1,1 2,1 0,1 0,2 0,3 v 87 c 8,-8 16,-14 24,-18 7,-4 15,-6 23,-6 10,0 18,2 25,5 6,3 12,8 16,13 4,6 7,12 9,20 2,7 2,16 2,27 z"
         inkscape:connector-curvature="0"
         style="fill:#fefefe;fill-rule:nonzero" /><path
         id="path74"
         class="fil3"
         d="m 3742,1931 c 0,5 -1,8 -3,9 -2,2 -4,3 -7,3 h -96 c 0,8 0,16 2,22 2,7 4,12 8,17 4,5 9,8 15,11 6,2 14,3 22,3 7,0 13,0 19,-1 5,-1 10,-3 14,-4 4,-2 7,-3 10,-4 2,-1 4,-2 6,-2 0,0 1,1 2,1 0,0 1,1 1,2 0,0 1,1 1,3 0,1 0,3 0,5 0,1 0,2 0,3 0,1 0,2 -1,3 0,1 0,2 0,2 -1,1 -1,2 -2,2 -1,1 -2,2 -5,3 -3,1 -7,3 -12,4 -4,1 -10,2 -16,3 -6,2 -12,2 -19,2 -12,0 -23,-2 -32,-5 -9,-3 -17,-8 -23,-15 -6,-7 -11,-15 -14,-25 -3,-10 -4,-21 -4,-35 0,-12 1,-24 4,-34 4,-10 8,-18 15,-25 6,-7 13,-13 22,-16 8,-4 18,-6 29,-6 11,0 21,2 29,6 8,3 15,8 20,14 5,7 9,14 12,22 2,9 3,18 3,27 z m -27,-8 c 1,-14 -3,-25 -9,-33 -7,-8 -16,-12 -29,-12 -7,0 -13,1 -18,4 -5,2 -9,6 -12,10 -4,4 -6,9 -8,14 -2,6 -3,11 -3,17 z"
         inkscape:connector-curvature="0"
         style="fill:#fefefe;fill-rule:nonzero" /><path
         id="path76"
         class="fil3"
         d="m 4001,2011 c 0,1 0,2 -1,2 0,1 -1,1 -2,2 -1,0 -2,0 -4,1 -2,0 -4,0 -7,0 -2,0 -5,0 -6,0 -2,-1 -3,-1 -4,-1 -1,-1 -2,-1 -3,-2 0,0 0,-1 0,-2 v -89 c 0,-6 -1,-12 -2,-17 -1,-5 -3,-10 -5,-13 -2,-4 -5,-7 -9,-9 -4,-2 -8,-3 -13,-3 -6,0 -13,3 -19,8 -6,4 -13,11 -20,21 v 102 c 0,1 0,2 -1,2 0,1 -1,1 -2,2 -1,0 -3,0 -4,1 -2,0 -4,0 -7,0 -2,0 -4,0 -6,0 -2,-1 -4,-1 -5,-1 -1,-1 -1,-1 -2,-2 0,0 0,-1 0,-2 v -89 c 0,-6 -1,-12 -2,-17 -1,-5 -3,-10 -5,-13 -3,-4 -6,-7 -9,-9 -4,-2 -8,-3 -13,-3 -7,0 -13,3 -19,8 -6,4 -13,11 -21,21 v 102 c 0,1 0,2 0,2 -1,1 -1,1 -2,2 -1,0 -3,0 -4,1 -2,0 -4,0 -7,0 -3,0 -5,0 -7,0 -1,-1 -3,-1 -4,-1 -1,-1 -2,-1 -2,-2 0,0 -1,-1 -1,-2 v -147 c 0,0 1,-1 1,-2 0,0 1,-1 2,-1 1,-1 2,-1 4,-1 1,-1 3,-1 6,-1 2,0 4,0 6,1 1,0 2,0 3,1 1,0 2,1 2,1 1,1 1,2 1,2 v 20 c 8,-9 16,-16 24,-21 8,-4 15,-6 23,-6 6,0 12,1 17,2 5,2 9,4 13,6 3,3 6,6 9,9 3,4 5,8 7,12 4,-5 9,-10 13,-13 5,-4 9,-7 13,-9 4,-3 8,-4 12,-5 4,-1 8,-2 12,-2 9,0 17,2 23,5 7,3 12,8 16,13 4,6 7,12 8,20 2,7 3,15 3,23 z"
         inkscape:connector-curvature="0"
         style="fill:#fefefe;fill-rule:nonzero" /><path
         id="path78"
         class="fil3"
         d="m 4077,2011 c 0,1 -1,2 -1,2 0,1 -1,1 -2,2 -1,0 -2,0 -4,1 -2,0 -4,0 -7,0 -3,0 -5,0 -6,0 -2,-1 -4,-1 -5,-1 -1,-1 -1,-1 -2,-2 0,0 0,-1 0,-2 v -147 c 0,0 0,-1 0,-2 1,0 1,-1 2,-1 1,-1 3,-1 5,-1 1,-1 3,-1 6,-1 3,0 5,0 7,1 2,0 3,0 4,1 1,0 2,1 2,1 0,1 1,2 1,2 z m 3,-196 c 0,6 -2,11 -4,13 -2,2 -7,3 -13,3 -6,0 -11,-1 -13,-3 -2,-2 -4,-6 -4,-13 0,-6 2,-10 4,-13 2,-2 7,-3 13,-3 7,0 11,1 13,3 3,3 4,7 4,13 z"
         inkscape:connector-curvature="0"
         style="fill:#fefefe;fill-rule:nonzero" /><path
         id="path80"
         class="fil3"
         d="m 4218,1971 c 0,7 -1,14 -4,20 -3,6 -7,11 -12,15 -5,4 -11,7 -18,9 -7,2 -15,3 -23,3 -5,0 -10,0 -15,-1 -5,-1 -9,-2 -13,-3 -4,-1 -7,-3 -9,-4 -3,-1 -5,-3 -6,-4 -1,-1 -2,-2 -3,-4 0,-2 0,-5 0,-8 0,-2 0,-4 0,-5 0,-2 0,-3 1,-4 0,-1 0,-1 1,-2 1,0 1,0 2,0 1,0 3,0 5,2 3,1 6,3 9,5 3,1 7,3 12,4 5,2 10,3 16,3 5,0 9,-1 12,-2 4,-1 7,-2 10,-4 3,-2 5,-4 6,-7 2,-3 3,-7 3,-11 0,-4 -2,-8 -4,-10 -2,-3 -5,-6 -8,-8 -3,-2 -7,-4 -12,-6 -4,-1 -8,-3 -13,-5 -5,-2 -9,-4 -14,-6 -4,-2 -8,-5 -11,-9 -4,-3 -7,-7 -9,-12 -2,-4 -3,-10 -3,-17 0,-5 1,-11 4,-16 2,-5 5,-10 10,-14 4,-4 10,-7 16,-9 7,-3 15,-4 24,-4 4,0 7,0 11,1 4,1 8,2 11,3 3,1 6,2 8,3 2,1 4,2 5,3 1,1 2,2 2,2 1,1 1,2 1,3 0,0 0,1 1,2 0,2 0,3 0,5 0,2 0,3 0,5 -1,1 -1,2 -1,3 -1,1 -1,1 -2,2 0,0 -1,0 -1,0 -1,0 -3,0 -5,-1 -1,-2 -4,-3 -7,-4 -3,-2 -6,-3 -10,-4 -4,-1 -9,-2 -14,-2 -4,0 -8,1 -12,2 -3,1 -6,2 -8,4 -3,2 -4,4 -5,7 -2,2 -2,5 -2,8 0,4 1,8 3,11 2,3 5,5 9,7 3,2 7,4 11,6 5,2 9,4 14,5 5,2 9,4 14,7 4,2 8,5 12,8 3,3 6,7 8,12 2,4 3,10 3,16 z"
         inkscape:connector-curvature="0"
         style="fill:#fefefe;fill-rule:nonzero" /><path
         id="path82"
         class="fil3"
         d="m 4329,2000 c 0,3 0,6 -1,8 0,1 -1,3 -2,4 -1,1 -2,1 -4,2 -1,1 -3,1 -6,2 -2,0 -4,1 -7,1 -2,1 -5,1 -7,1 -8,0 -14,-1 -20,-3 -5,-2 -9,-5 -13,-9 -3,-4 -6,-10 -7,-16 -2,-6 -3,-13 -3,-22 v -85 h -20 c -2,0 -3,-1 -4,-3 -1,-2 -2,-4 -2,-8 0,-2 0,-4 1,-6 0,-1 0,-2 1,-3 0,-1 1,-2 1,-2 1,0 2,-1 3,-1 h 20 v -34 c 0,-1 0,-2 1,-3 0,0 1,-1 2,-1 1,-1 2,-1 4,-1 2,-1 4,-1 7,-1 2,0 5,0 6,1 2,0 3,0 4,1 1,0 2,1 3,1 0,1 0,2 0,3 v 34 h 38 c 0,0 1,1 2,1 0,0 1,1 1,2 1,1 1,2 2,3 0,2 0,4 0,6 0,4 -1,6 -2,8 -1,2 -2,3 -3,3 h -38 v 81 c 0,10 2,18 5,23 3,5 8,8 16,8 2,0 4,-1 6,-1 2,-1 4,-1 5,-2 2,0 3,-1 4,-1 1,-1 2,-1 3,-1 1,0 1,0 2,1 0,0 1,0 1,1 0,1 0,2 1,3 0,1 0,3 0,5 z"
         inkscape:connector-curvature="0"
         style="fill:#fefefe;fill-rule:nonzero" /><path
         id="path84"
         class="fil3"
         d="m 4450,1874 c 0,2 0,4 0,6 0,2 0,3 -1,4 0,1 0,1 -1,2 0,0 -1,1 -2,1 -1,0 -2,-1 -3,-1 -1,-1 -3,-1 -4,-2 -2,0 -4,-1 -6,-1 -1,0 -4,-1 -6,-1 -3,0 -5,1 -8,2 -2,1 -5,3 -8,5 -3,3 -6,6 -9,10 -3,5 -7,10 -10,16 v 96 c 0,1 -1,2 -1,2 -1,1 -1,1 -2,2 -1,0 -3,0 -4,1 -2,0 -4,0 -7,0 -3,0 -5,0 -7,0 -1,-1 -3,-1 -4,-1 -1,-1 -2,-1 -2,-2 0,0 0,-1 0,-2 v -147 c 0,0 0,-1 0,-2 0,0 1,-1 2,-1 1,-1 2,-1 4,-1 1,-1 3,-1 6,-1 2,0 4,0 6,1 1,0 3,0 3,1 1,0 2,1 2,1 1,1 1,2 1,2 v 22 c 4,-6 8,-11 11,-15 4,-3 7,-6 10,-8 3,-2 6,-4 10,-5 3,-1 6,-1 9,-1 1,0 3,0 5,0 1,0 3,1 5,1 2,1 4,1 6,2 1,0 2,1 3,1 1,1 1,1 1,2 0,0 1,1 1,2 0,0 0,2 0,3 0,1 0,3 0,6 z"
         inkscape:connector-curvature="0"
         style="fill:#fefefe;fill-rule:nonzero" /><path
         id="path86"
         class="fil3"
         d="m 4549,2015 -20,54 c 0,2 -2,3 -5,4 -2,1 -6,1 -12,1 -3,0 -5,0 -7,0 -1,0 -3,-1 -4,-1 0,-1 -1,-2 -1,-3 0,-1 0,-2 1,-4 l 20,-51 c -1,0 -2,-1 -3,-2 -1,-1 -1,-2 -2,-3 l -52,-140 c -1,-2 -1,-4 -1,-6 0,-1 0,-2 1,-3 1,0 2,-1 4,-1 2,-1 5,-1 8,-1 3,0 6,0 8,1 2,0 3,0 4,1 1,0 2,1 3,1 0,1 1,2 1,4 l 42,117 v 0 l 41,-118 c 0,-2 1,-3 2,-4 1,-1 2,-1 4,-1 2,-1 5,-1 8,-1 3,0 6,0 8,1 2,0 3,1 4,1 1,1 1,2 1,3 0,2 0,3 0,5 z"
         inkscape:connector-curvature="0"
         style="fill:#fefefe;fill-rule:nonzero" /><path
         id="path88"
         class="fil3"
         d="m 4874,1907 c 0,18 -3,34 -7,47 -5,14 -12,25 -21,34 -9,9 -20,16 -33,20 -13,5 -28,7 -46,7 h -45 c -3,0 -5,-1 -7,-2 -2,-2 -3,-5 -3,-9 v -188 c 0,-4 1,-7 3,-9 2,-2 4,-3 7,-3 h 48 c 18,0 33,3 46,7 12,5 23,12 32,21 8,9 15,19 19,32 4,13 7,27 7,43 z m -30,1 c 0,-12 -1,-22 -4,-32 -3,-10 -7,-18 -13,-26 -6,-7 -14,-12 -23,-16 -9,-4 -21,-6 -36,-6 h -28 v 164 h 28 c 14,0 25,-2 34,-5 10,-4 17,-9 24,-16 6,-7 10,-15 14,-26 3,-10 4,-23 4,-37 z"
         inkscape:connector-curvature="0"
         style="fill:#fefefe;fill-rule:nonzero" /><path
         id="path90"
         class="fil3"
         d="m 5038,1931 c 0,5 -1,8 -3,9 -2,2 -4,3 -7,3 h -96 c 0,8 0,16 2,22 2,7 4,12 8,17 4,5 9,8 15,11 6,2 14,3 22,3 7,0 13,0 19,-1 5,-1 10,-3 14,-4 4,-2 7,-3 10,-4 2,-1 4,-2 6,-2 0,0 1,1 2,1 0,0 1,1 1,2 0,0 1,1 1,3 0,1 0,3 0,5 0,1 0,2 0,3 0,1 0,2 -1,3 0,1 0,2 0,2 -1,1 -1,2 -2,2 -1,1 -2,2 -5,3 -3,1 -7,3 -12,4 -4,1 -10,2 -16,3 -6,2 -12,2 -19,2 -12,0 -23,-2 -32,-5 -9,-3 -17,-8 -23,-15 -6,-7 -11,-15 -14,-25 -3,-10 -4,-21 -4,-35 0,-12 1,-24 4,-34 4,-10 8,-18 15,-25 6,-7 13,-13 22,-16 8,-4 18,-6 29,-6 11,0 21,2 29,6 8,3 15,8 20,14 5,7 9,14 12,22 2,9 3,18 3,27 z m -27,-8 c 1,-14 -3,-25 -9,-33 -7,-8 -16,-12 -29,-12 -7,0 -13,1 -18,4 -5,2 -9,6 -12,10 -4,4 -6,9 -8,14 -2,6 -3,11 -3,17 z"
         inkscape:connector-curvature="0"
         style="fill:#fefefe;fill-rule:nonzero" /><path
         id="path92"
         class="fil3"
         d="m 5214,1935 c 0,13 -1,25 -4,35 -3,10 -7,19 -12,26 -6,7 -12,12 -20,16 -8,4 -17,6 -27,6 -5,0 -9,0 -12,-1 -4,-1 -8,-2 -11,-4 -4,-2 -7,-5 -11,-7 -3,-3 -7,-6 -11,-10 v 73 c 0,1 0,2 0,2 -1,1 -1,2 -2,2 -1,0 -3,1 -4,1 -2,0 -4,0 -7,0 -3,0 -5,0 -7,0 -1,0 -3,-1 -4,-1 -1,0 -2,-1 -2,-2 0,0 -1,-1 -1,-2 v -205 c 0,-1 1,-1 1,-2 0,-1 1,-1 2,-1 1,-1 2,-1 4,-1 1,-1 3,-1 5,-1 2,0 4,0 6,1 1,0 3,0 4,0 1,1 1,1 2,2 0,1 0,1 0,2 v 20 c 5,-5 9,-8 13,-12 4,-3 8,-6 12,-8 5,-2 9,-4 13,-5 5,-1 9,-2 14,-2 11,0 20,2 27,6 8,4 14,10 19,17 4,7 8,16 10,25 2,10 3,20 3,30 z m -28,3 c 0,-7 0,-14 -2,-21 -1,-7 -3,-14 -5,-19 -3,-5 -7,-10 -12,-13 -4,-3 -10,-5 -17,-5 -4,0 -7,1 -10,2 -4,1 -7,2 -11,4 -3,3 -7,6 -11,9 -3,4 -7,8 -12,14 v 58 c 8,9 15,16 21,21 7,5 14,7 21,7 7,0 13,-2 18,-5 4,-3 8,-7 11,-13 3,-5 6,-11 7,-18 1,-7 2,-14 2,-21 z"
         inkscape:connector-curvature="0"
         style="fill:#fefefe;fill-rule:nonzero" /><path
         id="path94"
         class="fil3"
         d="m 5365,2011 c 0,1 -1,2 -1,3 -1,1 -2,1 -4,2 -2,0 -4,0 -7,0 -2,0 -5,0 -6,0 -2,-1 -3,-1 -4,-2 -1,-1 -1,-2 -1,-3 v -15 c -7,7 -14,13 -22,16 -8,4 -16,6 -25,6 -7,0 -14,-1 -21,-3 -6,-2 -11,-5 -16,-9 -4,-3 -7,-8 -10,-14 -2,-5 -3,-12 -3,-19 0,-8 1,-15 5,-21 3,-6 8,-11 14,-15 6,-4 14,-7 23,-9 9,-2 20,-3 31,-3 h 20 v -12 c 0,-5 0,-10 -2,-15 -1,-4 -3,-8 -5,-11 -3,-2 -6,-5 -11,-6 -4,-2 -9,-2 -15,-2 -7,0 -13,0 -18,2 -5,2 -10,3 -14,5 -4,2 -7,4 -10,6 -2,1 -4,2 -6,2 -1,0 -1,0 -2,-1 -1,0 -1,-1 -2,-2 0,0 -1,-2 -1,-3 0,-1 0,-3 0,-4 0,-3 0,-5 0,-7 1,-1 2,-3 3,-4 2,-2 4,-3 8,-5 3,-2 7,-4 12,-5 5,-2 10,-3 15,-4 6,-1 12,-2 17,-2 11,0 20,1 27,4 7,2 13,6 18,10 4,5 8,10 10,17 2,7 3,15 3,24 z m -27,-67 h -23 c -7,0 -13,1 -19,2 -5,1 -10,3 -13,5 -4,3 -7,6 -8,9 -2,4 -3,8 -3,12 0,8 3,14 7,18 5,5 12,7 21,7 7,0 13,-2 19,-5 6,-4 13,-9 19,-17 z"
         inkscape:connector-curvature="0"
         style="fill:#fefefe;fill-rule:nonzero" /><path
         id="path96"
         class="fil3"
         d="m 5500,1874 c 0,2 0,4 0,6 0,2 -1,3 -1,4 0,1 -1,1 -1,2 -1,0 -1,1 -2,1 -1,0 -2,-1 -3,-1 -2,-1 -3,-1 -5,-2 -1,0 -3,-1 -5,-1 -2,0 -4,-1 -6,-1 -3,0 -6,1 -8,2 -3,1 -6,3 -8,5 -3,3 -6,6 -9,10 -4,5 -7,10 -11,16 v 96 c 0,1 0,2 0,2 -1,1 -2,1 -3,2 -1,0 -2,0 -4,1 -1,0 -4,0 -6,0 -3,0 -5,0 -7,0 -2,-1 -3,-1 -4,-1 -1,-1 -2,-1 -2,-2 -1,0 -1,-1 -1,-2 v -147 c 0,0 0,-1 1,-2 0,0 1,-1 2,-1 1,-1 2,-1 3,-1 2,-1 4,-1 6,-1 3,0 5,0 6,1 2,0 3,0 4,1 1,0 2,1 2,1 0,1 1,2 1,2 v 22 c 4,-6 7,-11 11,-15 3,-3 7,-6 10,-8 3,-2 6,-4 9,-5 3,-1 6,-1 10,-1 1,0 3,0 4,0 2,0 4,1 6,1 2,1 4,1 5,2 2,0 3,1 4,1 0,1 1,1 1,2 0,0 0,1 0,2 1,0 1,2 1,3 0,1 0,3 0,6 z"
         inkscape:connector-curvature="0"
         style="fill:#fefefe;fill-rule:nonzero" /><path
         id="path98"
         class="fil3"
         d="m 5606,2000 c 0,3 0,6 0,8 -1,1 -1,3 -2,4 -1,1 -2,1 -4,2 -2,1 -4,1 -6,2 -2,0 -5,1 -7,1 -3,1 -5,1 -8,1 -7,0 -14,-1 -19,-3 -5,-2 -10,-5 -13,-9 -4,-4 -6,-10 -8,-16 -1,-6 -2,-13 -2,-22 v -85 h -21 c -1,0 -3,-1 -4,-3 -1,-2 -1,-4 -1,-8 0,-2 0,-4 0,-6 0,-1 1,-2 1,-3 1,-1 1,-2 2,-2 1,0 1,-1 2,-1 h 21 v -34 c 0,-1 0,-2 0,-3 1,0 1,-1 2,-1 1,-1 3,-1 5,-1 1,-1 4,-1 6,-1 3,0 5,0 7,1 2,0 3,0 4,1 1,0 2,1 2,1 1,1 1,2 1,3 v 34 h 37 c 1,0 2,1 2,1 1,0 2,1 2,2 1,1 1,2 1,3 0,2 0,4 0,6 0,4 0,6 -1,8 -1,2 -2,3 -4,3 h -37 v 81 c 0,10 1,18 4,23 3,5 8,8 16,8 3,0 5,-1 7,-1 2,-1 3,-1 5,-2 1,0 3,-1 4,-1 1,-1 2,-1 3,-1 0,0 1,0 1,1 1,0 1,0 1,1 1,1 1,2 1,3 0,1 0,3 0,5 z"
         inkscape:connector-curvature="0"
         style="fill:#fefefe;fill-rule:nonzero" /><path
         id="path100"
         class="fil3"
         d="m 5859,2011 c 0,1 0,2 0,2 -1,1 -1,1 -2,2 -1,0 -3,0 -4,1 -2,0 -4,0 -7,0 -3,0 -5,0 -7,0 -1,-1 -3,-1 -4,-1 -1,-1 -2,-1 -2,-2 0,0 -1,-1 -1,-2 v -89 c 0,-6 0,-12 -1,-17 -1,-5 -3,-10 -5,-13 -3,-4 -6,-7 -10,-9 -3,-2 -8,-3 -13,-3 -6,0 -12,3 -18,8 -6,4 -13,11 -21,21 v 102 c 0,1 0,2 0,2 -1,1 -1,1 -3,2 -1,0 -2,0 -4,1 -1,0 -4,0 -6,0 -3,0 -5,0 -7,0 -1,-1 -3,-1 -4,-1 -1,-1 -2,-1 -2,-2 0,0 -1,-1 -1,-2 v -89 c 0,-6 0,-12 -1,-17 -2,-5 -3,-10 -6,-13 -2,-4 -5,-7 -9,-9 -3,-2 -8,-3 -13,-3 -6,0 -12,3 -18,8 -7,4 -14,11 -21,21 v 102 c 0,1 0,2 -1,2 0,1 -1,1 -2,2 -1,0 -2,0 -4,1 -2,0 -4,0 -6,0 -3,0 -5,0 -7,0 -2,-1 -3,-1 -4,-1 -1,-1 -2,-1 -2,-2 -1,0 -1,-1 -1,-2 v -147 c 0,0 0,-1 1,-2 0,0 1,-1 2,-1 1,-1 2,-1 3,-1 2,-1 4,-1 6,-1 3,0 5,0 6,1 2,0 3,0 4,1 1,0 2,1 2,1 0,1 0,2 0,2 v 20 c 9,-9 17,-16 25,-21 7,-4 15,-6 23,-6 6,0 12,1 16,2 5,2 10,4 13,6 4,3 7,6 10,9 2,4 4,8 6,12 5,-5 10,-10 14,-13 4,-4 9,-7 13,-9 4,-3 8,-4 12,-5 3,-1 7,-2 11,-2 10,0 17,2 24,5 6,3 11,8 15,13 4,6 7,12 9,20 2,7 2,15 2,23 z"
         inkscape:connector-curvature="0"
         style="fill:#fefefe;fill-rule:nonzero" /><path
         id="path102"
         class="fil3"
         d="m 6033,1931 c 0,5 -1,8 -3,9 -2,2 -5,3 -7,3 h -97 c 0,8 1,16 3,22 1,7 4,12 8,17 4,5 9,8 15,11 6,2 13,3 22,3 7,0 13,0 19,-1 5,-1 10,-3 14,-4 4,-2 7,-3 9,-4 3,-1 5,-2 6,-2 1,0 2,1 2,1 1,0 1,1 2,2 0,0 0,1 0,3 1,1 1,3 1,5 0,1 0,2 -1,3 0,1 0,2 0,3 0,1 0,2 -1,2 0,1 -1,2 -1,2 -1,1 -3,2 -5,3 -3,1 -7,3 -12,4 -5,1 -10,2 -16,3 -6,2 -13,2 -20,2 -12,0 -22,-2 -31,-5 -9,-3 -17,-8 -23,-15 -6,-7 -11,-15 -14,-25 -3,-10 -5,-21 -5,-35 0,-12 2,-24 5,-34 3,-10 8,-18 14,-25 6,-7 14,-13 22,-16 9,-4 19,-6 30,-6 11,0 21,2 29,6 8,3 15,8 20,14 5,7 9,14 11,22 3,9 4,18 4,27 z m -27,-8 c 0,-14 -3,-25 -9,-33 -7,-8 -17,-12 -30,-12 -6,0 -12,1 -17,4 -5,2 -9,6 -13,10 -3,4 -6,9 -8,14 -1,6 -2,11 -3,17 z"
         inkscape:connector-curvature="0"
         style="fill:#fefefe;fill-rule:nonzero" /><path
         id="28"
         class="fil3"
         d="m 6200,2011 c 0,1 0,2 -1,2 0,1 -1,1 -2,2 -1,0 -2,0 -4,1 -1,0 -4,0 -6,0 -3,0 -5,0 -7,0 -2,-1 -3,-1 -4,-1 -1,-1 -2,-1 -2,-2 -1,0 -1,-1 -1,-2 v -86 c 0,-8 -1,-15 -2,-20 -1,-5 -3,-10 -5,-13 -3,-4 -6,-7 -10,-9 -4,-2 -9,-3 -14,-3 -6,0 -13,3 -20,8 -7,4 -14,11 -21,21 v 102 c 0,1 0,2 -1,2 0,1 -1,1 -2,2 -1,0 -2,0 -4,1 -1,0 -4,0 -6,0 -3,0 -5,0 -7,0 -2,-1 -3,-1 -4,-1 -1,-1 -2,-1 -2,-2 -1,0 -1,-1 -1,-2 v -147 c 0,0 0,-1 1,-2 0,0 1,-1 2,-1 1,-1 2,-1 3,-1 2,-1 4,-1 6,-1 3,0 5,0 6,1 2,0 3,0 4,1 1,0 2,1 2,1 0,1 1,2 1,2 v 20 c 8,-9 16,-16 24,-21 8,-4 17,-6 25,-6 10,0 18,2 24,5 7,3 13,8 17,13 4,6 7,12 8,20 2,7 3,16 3,27 z"
         inkscape:connector-curvature="0"
         style="fill:#fefefe;fill-rule:nonzero" /><path
         id="29"
         class="fil3"
         d="m 6322,2000 c 0,3 0,6 -1,8 0,1 -1,3 -1,4 -1,1 -3,1 -4,2 -2,1 -4,1 -6,2 -3,0 -5,1 -7,1 -3,1 -5,1 -8,1 -7,0 -14,-1 -19,-3 -6,-2 -10,-5 -14,-9 -3,-4 -6,-10 -7,-16 -2,-6 -3,-13 -3,-22 v -85 h -20 c -2,0 -3,-1 -4,-3 -1,-2 -2,-4 -2,-8 0,-2 1,-4 1,-6 0,-1 1,-2 1,-3 0,-1 1,-2 2,-2 0,0 1,-1 2,-1 h 20 v -34 c 0,-1 1,-2 1,-3 0,0 1,-1 2,-1 1,-1 3,-1 4,-1 2,-1 4,-1 7,-1 3,0 5,0 7,1 1,0 3,0 4,1 1,0 1,1 2,1 0,1 0,2 0,3 v 34 h 38 c 1,0 1,1 2,1 1,0 1,1 2,2 0,1 1,2 1,3 0,2 0,4 0,6 0,4 0,6 -1,8 -1,2 -3,3 -4,3 h -38 v 81 c 0,10 2,18 5,23 3,5 8,8 16,8 2,0 5,-1 6,-1 2,-1 4,-1 6,-2 1,0 2,-1 4,-1 1,-1 2,-1 2,-1 1,0 1,0 2,1 0,0 1,0 1,1 0,1 1,2 1,3 0,1 0,3 0,5 z"
         inkscape:connector-curvature="0"
         style="fill:#fefefe;fill-rule:nonzero" /><path
         id="30"
         class="fil3"
         d="m 6594,1937 c 0,13 -1,24 -5,34 -4,10 -9,19 -16,26 -7,7 -16,12 -26,16 -10,3 -21,5 -34,5 -11,0 -22,-2 -31,-5 -10,-3 -18,-8 -25,-15 -7,-6 -12,-15 -16,-25 -3,-9 -5,-21 -5,-34 v -130 c 0,-1 0,-2 0,-3 1,0 2,-1 3,-1 1,-1 2,-1 4,-1 2,-1 4,-1 7,-1 3,0 5,0 7,1 1,0 3,0 4,1 1,0 2,1 2,1 1,1 1,2 1,3 v 127 c 0,10 1,18 3,25 3,8 6,14 11,18 4,5 10,9 16,11 6,3 13,4 21,4 8,0 16,-1 22,-4 6,-2 12,-6 16,-10 4,-5 8,-11 10,-18 2,-7 3,-15 3,-25 v -128 c 0,-1 1,-2 1,-3 1,0 1,-1 2,-1 2,-1 3,-1 5,-1 2,-1 4,-1 7,-1 2,0 4,0 6,1 2,0 3,0 4,1 1,0 2,1 3,1 0,1 0,2 0,3 z"
         inkscape:connector-curvature="0"
         style="fill:#fefefe;fill-rule:nonzero" /><path
         id="31"
         class="fil3"
         d="m 6773,2011 c 0,1 0,2 -1,2 0,1 -1,1 -2,2 -1,0 -2,0 -4,1 -2,0 -4,0 -6,0 -3,0 -5,0 -7,0 -2,-1 -3,-1 -4,-1 -1,-1 -2,-1 -2,-2 -1,0 -1,-1 -1,-2 v -86 c 0,-8 -1,-15 -2,-20 -1,-5 -3,-10 -6,-13 -2,-4 -5,-7 -9,-9 -4,-2 -9,-3 -14,-3 -7,0 -13,3 -20,8 -7,4 -14,11 -21,21 v 102 c 0,1 0,2 -1,2 0,1 -1,1 -2,2 -1,0 -2,0 -4,1 -2,0 -4,0 -7,0 -2,0 -4,0 -6,0 -2,-1 -3,-1 -4,-1 -1,-1 -2,-1 -2,-2 -1,0 -1,-1 -1,-2 v -147 c 0,0 0,-1 1,-2 0,0 0,-1 1,-1 1,-1 3,-1 4,-1 2,-1 4,-1 6,-1 3,0 5,0 6,1 2,0 3,0 4,1 1,0 1,1 2,1 0,1 0,2 0,2 v 20 c 9,-9 17,-16 25,-21 8,-4 16,-6 25,-6 9,0 18,2 24,5 7,3 12,8 17,13 4,6 7,12 8,20 2,7 3,16 3,27 z"
         inkscape:connector-curvature="0"
         style="fill:#fefefe;fill-rule:nonzero" /><path
         id="32"
         class="fil3"
         d="m 6849,2011 c 0,1 0,2 -1,2 0,1 -1,1 -2,2 -1,0 -2,0 -4,1 -1,0 -4,0 -6,0 -3,0 -5,0 -7,0 -2,-1 -3,-1 -4,-1 -1,-1 -2,-1 -2,-2 -1,0 -1,-1 -1,-2 v -147 c 0,0 0,-1 1,-2 0,0 1,-1 2,-1 1,-1 2,-1 4,-1 2,-1 4,-1 7,-1 2,0 5,0 6,1 2,0 3,0 4,1 1,0 2,1 2,1 1,1 1,2 1,2 z m 3,-196 c 0,6 -1,11 -3,13 -3,2 -7,3 -14,3 -6,0 -10,-1 -13,-3 -2,-2 -3,-6 -3,-13 0,-6 1,-10 3,-13 3,-2 7,-3 14,-3 6,0 10,1 13,3 2,3 3,7 3,13 z"
         inkscape:connector-curvature="0"
         style="fill:#fefefe;fill-rule:nonzero" /><path
         id="33"
         class="fil3"
         d="m 7019,1864 c 0,1 0,1 0,1 -1,1 -1,1 -1,2 0,1 0,1 0,2 0,0 0,1 -1,2 l -50,139 c 0,1 -1,2 -1,3 -1,1 -2,1 -3,2 -2,0 -4,1 -6,1 -2,0 -5,0 -8,0 -3,0 -6,0 -8,0 -2,-1 -4,-1 -5,-1 -2,-1 -3,-1 -4,-2 0,-1 -1,-2 -1,-3 l -50,-139 c -1,-1 -1,-3 -1,-3 -1,-1 -1,-2 -1,-3 0,0 0,-1 0,-1 0,-1 0,-2 1,-2 0,-1 1,-1 2,-2 1,0 2,0 4,0 2,-1 4,-1 6,-1 4,0 6,0 8,1 2,0 3,0 4,1 1,0 2,0 3,1 0,1 1,2 1,3 l 41,120 1,2 v -2 l 41,-120 c 0,-1 1,-2 1,-3 1,-1 2,-1 3,-1 1,-1 2,-1 4,-1 2,-1 4,-1 7,-1 3,0 5,0 6,1 2,0 3,0 4,0 1,1 2,1 2,2 0,0 1,1 1,2 z"
         inkscape:connector-curvature="0"
         style="fill:#fefefe;fill-rule:nonzero" /><path
         id="34"
         class="fil3"
         d="m 7171,1931 c 0,5 -2,8 -4,9 -2,2 -4,3 -7,3 h -96 c 0,8 1,16 2,22 2,7 5,12 8,17 4,5 9,8 15,11 6,2 14,3 23,3 7,0 13,0 18,-1 6,-1 10,-3 14,-4 4,-2 7,-3 10,-4 3,-1 4,-2 6,-2 1,0 1,1 2,1 0,0 1,1 1,2 1,0 1,1 1,3 0,1 0,3 0,5 0,1 0,2 0,3 0,1 0,2 0,3 -1,1 -1,2 -1,2 -1,1 -1,2 -2,2 0,1 -2,2 -5,3 -3,1 -7,3 -11,4 -5,1 -10,2 -16,3 -7,2 -13,2 -20,2 -12,0 -23,-2 -32,-5 -9,-3 -16,-8 -22,-15 -7,-7 -11,-15 -14,-25 -4,-10 -5,-21 -5,-35 0,-12 1,-24 5,-34 3,-10 8,-18 14,-25 6,-7 13,-13 22,-16 9,-4 18,-6 29,-6 12,0 21,2 29,6 9,3 15,8 20,14 6,7 9,14 12,22 2,9 4,18 4,27 z m -27,-8 c 0,-14 -3,-25 -10,-33 -6,-8 -16,-12 -29,-12 -7,0 -13,1 -18,4 -5,2 -9,6 -12,10 -4,4 -6,9 -8,14 -2,6 -3,11 -3,17 z"
         inkscape:connector-curvature="0"
         style="fill:#fefefe;fill-rule:nonzero" /><path
         id="35"
         class="fil3"
         d="m 7297,1874 c 0,2 0,4 0,6 0,2 0,3 0,4 -1,1 -1,1 -2,2 0,0 -1,1 -2,1 -1,0 -2,-1 -3,-1 -1,-1 -3,-1 -4,-2 -2,0 -3,-1 -5,-1 -2,0 -4,-1 -7,-1 -2,0 -5,1 -8,2 -2,1 -5,3 -8,5 -3,3 -6,6 -9,10 -3,5 -7,10 -10,16 v 96 c 0,1 -1,2 -1,2 0,1 -1,1 -2,2 -1,0 -2,0 -4,1 -2,0 -4,0 -7,0 -3,0 -5,0 -6,0 -2,-1 -4,-1 -5,-1 -1,-1 -1,-1 -2,-2 0,0 0,-1 0,-2 v -147 c 0,0 0,-1 0,-2 1,0 1,-1 2,-1 1,-1 2,-1 4,-1 1,-1 3,-1 6,-1 2,0 4,0 6,1 2,0 3,0 4,1 0,0 1,1 2,1 0,1 0,2 0,2 v 22 c 4,-6 8,-11 11,-15 4,-3 7,-6 10,-8 4,-2 7,-4 10,-5 3,-1 6,-1 9,-1 1,0 3,0 5,0 2,0 4,1 5,1 2,1 4,1 6,2 1,0 2,1 3,1 1,1 1,1 1,2 1,0 1,1 1,2 0,0 0,2 0,3 0,1 0,3 0,6 z"
         inkscape:connector-curvature="0"
         style="fill:#fefefe;fill-rule:nonzero" /><path
         id="36"
         class="fil3"
         d="m 7414,1971 c 0,7 -1,14 -4,20 -3,6 -7,11 -12,15 -5,4 -11,7 -18,9 -7,2 -15,3 -23,3 -5,0 -10,0 -15,-1 -5,-1 -9,-2 -13,-3 -4,-1 -7,-3 -9,-4 -3,-1 -5,-3 -6,-4 -1,-1 -2,-2 -3,-4 0,-2 0,-5 0,-8 0,-2 0,-4 0,-5 0,-2 0,-3 1,-4 0,-1 0,-1 1,-2 1,0 1,0 2,0 1,0 3,0 5,2 3,1 6,3 9,5 3,1 7,3 12,4 5,2 10,3 16,3 5,0 9,-1 12,-2 4,-1 7,-2 10,-4 3,-2 5,-4 6,-7 2,-3 3,-7 3,-11 0,-4 -2,-8 -4,-10 -2,-3 -5,-6 -8,-8 -3,-2 -7,-4 -12,-6 -4,-1 -8,-3 -13,-5 -5,-2 -9,-4 -14,-6 -4,-2 -8,-5 -11,-9 -4,-3 -7,-7 -9,-12 -2,-4 -3,-10 -3,-17 0,-5 1,-11 4,-16 2,-5 5,-10 10,-14 4,-4 10,-7 16,-9 7,-3 15,-4 24,-4 4,0 7,0 11,1 4,1 8,2 11,3 3,1 6,2 8,3 2,1 4,2 5,3 1,1 2,2 2,2 1,1 1,2 1,3 0,0 0,1 1,2 0,2 0,3 0,5 0,2 0,3 0,5 -1,1 -1,2 -1,3 -1,1 -1,1 -2,2 0,0 -1,0 -1,0 -1,0 -3,0 -5,-1 -1,-2 -4,-3 -7,-4 -3,-2 -6,-3 -10,-4 -4,-1 -9,-2 -14,-2 -4,0 -8,1 -12,2 -3,1 -6,2 -8,4 -3,2 -4,4 -5,7 -2,2 -2,5 -2,8 0,4 1,8 3,11 2,3 5,5 9,7 3,2 7,4 11,6 5,2 9,4 14,5 5,2 9,4 14,7 4,2 8,5 12,8 3,3 6,7 8,12 2,4 3,10 3,16 z"
         inkscape:connector-curvature="0"
         style="fill:#fefefe;fill-rule:nonzero" /><path
         id="37"
         class="fil3"
         d="m 7480,2011 c 0,1 -1,2 -1,2 -1,1 -1,1 -2,2 -1,0 -3,0 -4,1 -2,0 -4,0 -7,0 -3,0 -5,0 -7,0 -1,-1 -3,-1 -4,-1 -1,-1 -1,-1 -2,-2 0,0 0,-1 0,-2 v -147 c 0,0 0,-1 0,-2 1,0 1,-1 2,-1 1,-1 3,-1 4,-1 2,-1 4,-1 7,-1 3,0 5,0 7,1 1,0 3,0 4,1 1,0 1,1 2,1 0,1 1,2 1,2 z m 3,-196 c 0,6 -2,11 -4,13 -2,2 -7,3 -13,3 -7,0 -11,-1 -13,-3 -3,-2 -4,-6 -4,-13 0,-6 1,-10 4,-13 2,-2 7,-3 13,-3 6,0 11,1 13,3 2,3 4,7 4,13 z"
         inkscape:connector-curvature="0"
         style="fill:#fefefe;fill-rule:nonzero" /><path
         id="38"
         class="fil3"
         d="m 7605,2000 c 0,3 0,6 -1,8 0,1 -1,3 -2,4 0,1 -2,1 -3,2 -2,1 -4,1 -6,2 -3,0 -5,1 -7,1 -3,1 -5,1 -8,1 -7,0 -14,-1 -19,-3 -6,-2 -10,-5 -14,-9 -3,-4 -6,-10 -7,-16 -2,-6 -3,-13 -3,-22 v -85 h -20 c -2,0 -3,-1 -4,-3 -1,-2 -2,-4 -2,-8 0,-2 1,-4 1,-6 0,-1 0,-2 1,-3 0,-1 1,-2 2,-2 0,0 1,-1 2,-1 h 20 v -34 c 0,-1 1,-2 1,-3 0,0 1,-1 2,-1 1,-1 3,-1 4,-1 2,-1 4,-1 7,-1 3,0 5,0 7,1 1,0 3,0 4,1 1,0 1,1 2,1 0,1 0,2 0,3 v 34 h 38 c 1,0 1,1 2,1 1,0 1,1 2,2 0,1 1,2 1,3 0,2 0,4 0,6 0,4 0,6 -1,8 -1,2 -3,3 -4,3 h -38 v 81 c 0,10 2,18 5,23 3,5 8,8 16,8 2,0 4,-1 6,-1 2,-1 4,-1 6,-2 1,0 2,-1 3,-1 2,-1 3,-1 3,-1 1,0 1,0 2,1 0,0 1,0 1,1 0,1 1,2 1,3 0,1 0,3 0,5 z"
         inkscape:connector-curvature="0"
         style="fill:#fefefe;fill-rule:nonzero" /><path
         id="39"
         class="fil3"
         d="m 7747,2011 c 0,1 0,2 -1,3 -1,1 -2,1 -4,2 -1,0 -4,0 -7,0 -2,0 -5,0 -6,0 -2,-1 -3,-1 -4,-2 -1,-1 -1,-2 -1,-3 v -15 c -6,7 -14,13 -21,16 -8,4 -17,6 -25,6 -8,0 -15,-1 -21,-3 -7,-2 -12,-5 -16,-9 -5,-3 -8,-8 -11,-14 -2,-5 -3,-12 -3,-19 0,-8 1,-15 5,-21 3,-6 8,-11 14,-15 7,-4 14,-7 23,-9 9,-2 20,-3 31,-3 h 20 v -12 c 0,-5 0,-10 -1,-15 -2,-4 -4,-8 -6,-11 -3,-2 -6,-5 -11,-6 -4,-2 -9,-2 -15,-2 -7,0 -13,0 -18,2 -5,2 -10,3 -14,5 -4,2 -7,4 -10,6 -2,1 -4,2 -6,2 0,0 -1,0 -2,-1 -1,0 -1,-1 -2,-2 0,0 0,-2 -1,-3 0,-1 0,-3 0,-4 0,-3 0,-5 1,-7 0,-1 1,-3 2,-4 2,-2 4,-3 8,-5 3,-2 8,-4 12,-5 5,-2 10,-3 16,-4 5,-1 11,-2 16,-2 11,0 20,1 27,4 8,2 13,6 18,10 5,5 8,10 10,17 2,7 3,15 3,24 z m -27,-67 h -23 c -7,0 -13,1 -19,2 -5,1 -10,3 -13,5 -4,3 -6,6 -8,9 -2,4 -3,8 -3,12 0,8 3,14 8,18 4,5 11,7 20,7 7,0 13,-2 19,-5 6,-4 13,-9 19,-17 z"
         inkscape:connector-curvature="0"
         style="fill:#fefefe;fill-rule:nonzero" /><path
         id="40"
         class="fil3"
         d="m 7888,1971 c 0,7 -1,14 -4,20 -3,6 -6,11 -12,15 -5,4 -11,7 -18,9 -7,2 -15,3 -23,3 -5,0 -10,0 -15,-1 -5,-1 -9,-2 -13,-3 -3,-1 -7,-3 -9,-4 -3,-1 -5,-3 -6,-4 -1,-1 -2,-2 -2,-4 -1,-2 -1,-5 -1,-8 0,-2 0,-4 0,-5 0,-2 1,-3 1,-4 0,-1 1,-1 1,-2 1,0 1,0 2,0 1,0 3,0 6,2 2,1 5,3 8,5 4,1 8,3 12,4 5,2 10,3 16,3 5,0 9,-1 13,-2 3,-1 7,-2 9,-4 3,-2 5,-4 7,-7 1,-3 2,-7 2,-11 0,-4 -1,-8 -3,-10 -3,-3 -5,-6 -9,-8 -3,-2 -7,-4 -12,-6 -4,-1 -8,-3 -13,-5 -4,-2 -9,-4 -13,-6 -5,-2 -9,-5 -12,-9 -4,-3 -6,-7 -8,-12 -3,-4 -4,-10 -4,-17 0,-5 1,-11 4,-16 2,-5 5,-10 10,-14 4,-4 10,-7 16,-9 7,-3 15,-4 24,-4 4,0 8,0 12,1 3,1 7,2 10,3 3,1 6,2 8,3 2,1 4,2 5,3 1,1 2,2 2,2 1,1 1,2 1,3 0,0 1,1 1,2 0,2 0,3 0,5 0,2 0,3 0,5 0,1 -1,2 -1,3 0,1 -1,1 -1,2 -1,0 -2,0 -2,0 -1,0 -3,0 -4,-1 -2,-2 -5,-3 -8,-4 -3,-2 -6,-3 -10,-4 -4,-1 -8,-2 -14,-2 -4,0 -8,1 -12,2 -3,1 -6,2 -8,4 -2,2 -4,4 -5,7 -1,2 -2,5 -2,8 0,4 1,8 3,11 2,3 5,5 9,7 3,2 7,4 12,6 4,2 9,4 13,5 5,2 9,4 14,7 4,2 8,5 12,8 3,3 6,7 8,12 2,4 3,10 3,16 z"
         inkscape:connector-curvature="0"
         style="fill:#fefefe;fill-rule:nonzero" /><path
         id="41"
         class="fil3"
         d="m 8163,1833 c 0,2 0,4 0,6 0,1 -1,2 -1,4 -1,1 -1,1 -2,2 0,0 -1,0 -2,0 -1,0 -3,-1 -6,-3 -4,-2 -8,-4 -13,-7 -5,-2 -11,-4 -18,-7 -7,-2 -16,-3 -25,-3 -12,0 -22,2 -32,7 -9,4 -17,10 -23,17 -6,8 -11,17 -15,27 -3,10 -5,22 -5,34 0,13 2,25 6,35 3,11 9,20 15,27 7,7 15,12 24,16 9,4 19,6 30,6 7,0 13,-1 20,-3 7,-1 13,-4 19,-7 v -61 h -49 c -2,0 -3,-1 -4,-3 -1,-2 -2,-5 -2,-9 0,-2 1,-4 1,-5 0,-1 0,-3 1,-4 0,-1 1,-1 2,-2 0,0 1,0 2,0 h 67 c 1,0 2,0 3,0 2,1 3,1 4,2 1,1 1,2 2,4 0,1 1,3 1,5 v 80 c 0,3 -1,6 -2,8 -1,2 -3,4 -6,5 -3,2 -7,4 -12,5 -5,2 -10,4 -16,5 -5,1 -10,2 -16,3 -5,1 -11,1 -16,1 -16,0 -31,-2 -43,-8 -13,-5 -24,-12 -33,-21 -9,-9 -16,-21 -20,-34 -5,-13 -7,-27 -7,-43 0,-17 2,-32 7,-46 5,-13 12,-25 22,-35 9,-9 20,-16 33,-22 13,-5 27,-8 42,-8 8,0 16,1 23,2 7,2 13,4 19,5 5,2 10,4 14,7 3,2 6,4 7,5 2,2 3,3 3,5 1,2 1,5 1,8 z"
         inkscape:connector-curvature="0"
         style="fill:#fefefe;fill-rule:nonzero" /><path
         id="42"
         class="fil3"
         d="m 8323,2011 c 0,1 -1,2 -2,3 -1,1 -2,1 -3,2 -2,0 -4,0 -7,0 -3,0 -5,0 -7,0 -1,-1 -3,-1 -3,-2 -1,-1 -1,-2 -1,-3 v -15 c -7,7 -14,13 -22,16 -8,4 -16,6 -25,6 -8,0 -15,-1 -21,-3 -6,-2 -11,-5 -16,-9 -4,-3 -8,-8 -10,-14 -2,-5 -4,-12 -4,-19 0,-8 2,-15 5,-21 4,-6 9,-11 15,-15 6,-4 14,-7 23,-9 9,-2 19,-3 31,-3 h 20 v -12 c 0,-5 -1,-10 -2,-15 -1,-4 -3,-8 -6,-11 -2,-2 -6,-5 -10,-6 -4,-2 -9,-2 -16,-2 -6,0 -12,0 -17,2 -6,2 -10,3 -14,5 -4,2 -7,4 -10,6 -3,1 -5,2 -6,2 -1,0 -2,0 -2,-1 -1,0 -1,-1 -2,-2 0,0 -1,-2 -1,-3 0,-1 0,-3 0,-4 0,-3 0,-5 0,-7 1,-1 2,-3 3,-4 1,-2 4,-3 8,-5 3,-2 7,-4 12,-5 5,-2 10,-3 15,-4 6,-1 11,-2 17,-2 10,0 19,1 27,4 7,2 13,6 18,10 4,5 7,10 10,17 2,7 3,15 3,24 z m -27,-67 h -23 c -7,0 -14,1 -19,2 -6,1 -10,3 -14,5 -3,3 -6,6 -8,9 -1,4 -2,8 -2,12 0,8 2,14 7,18 5,5 12,7 20,7 7,0 14,-2 20,-5 6,-4 12,-9 19,-17 z"
         inkscape:connector-curvature="0"
         style="fill:#fefefe;fill-rule:nonzero" /><path
         id="43"
         class="fil3"
         d="m 8497,2011 c 0,1 0,2 0,2 -1,1 -1,1 -2,2 -1,0 -2,0 -4,1 -1,0 -3,0 -5,0 -3,0 -5,0 -6,0 -2,-1 -3,-1 -4,-1 -1,-1 -2,-1 -2,-2 0,0 -1,-1 -1,-2 v -20 c -7,9 -15,15 -24,20 -8,5 -17,7 -27,7 -11,0 -20,-2 -27,-6 -8,-4 -14,-10 -19,-17 -4,-7 -8,-16 -10,-25 -2,-10 -3,-20 -3,-31 0,-12 1,-24 4,-34 2,-10 6,-19 12,-26 5,-7 12,-12 20,-16 7,-4 16,-6 27,-6 8,0 16,2 23,6 7,3 14,9 21,16 v -85 c 0,-1 0,-1 1,-2 0,-1 1,-1 2,-2 1,0 3,0 4,-1 2,0 4,0 7,0 2,0 5,0 6,0 2,1 3,1 4,1 1,1 2,1 3,2 0,1 0,1 0,2 z m -27,-103 c -7,-9 -14,-16 -21,-21 -6,-5 -14,-7 -21,-7 -7,0 -12,2 -17,5 -5,3 -9,7 -12,13 -3,5 -5,11 -6,18 -2,7 -2,13 -2,20 0,8 0,15 1,22 1,7 3,13 6,19 3,5 7,10 11,13 5,3 11,5 18,5 4,0 7,0 10,-1 4,-1 7,-3 10,-5 4,-3 8,-6 11,-9 4,-4 8,-8 12,-14 z"
         inkscape:connector-curvature="0"
         style="fill:#fefefe;fill-rule:nonzero" /><path
         id="44"
         class="fil3"
         d="m 8577,2017 c 0,11 -1,20 -2,27 -2,6 -5,12 -8,17 -3,4 -8,8 -13,10 -6,2 -12,3 -20,3 -3,0 -6,0 -9,0 -2,-1 -4,-1 -5,-2 -2,0 -3,-1 -3,-2 -1,0 -1,-1 -1,-2 0,-1 0,-2 -1,-3 0,-1 0,-2 0,-4 0,-1 0,-3 1,-5 0,-1 0,-2 0,-3 1,-1 1,-2 2,-2 0,0 1,0 2,0 0,0 2,0 3,0 2,0 5,0 7,0 4,0 7,0 9,-1 3,-1 5,-3 6,-6 2,-2 3,-5 4,-9 1,-4 1,-10 1,-18 v -153 c 0,0 0,-1 1,-2 0,0 1,-1 2,-1 1,-1 2,-1 4,-1 2,-1 4,-1 7,-1 2,0 4,0 6,1 2,0 3,0 4,1 1,0 2,1 2,1 1,1 1,2 1,2 z m 3,-202 c 0,6 -1,11 -3,13 -3,2 -7,3 -14,3 -6,0 -10,-1 -13,-3 -2,-2 -3,-6 -3,-13 0,-6 1,-10 4,-13 2,-2 6,-3 13,-3 6,0 10,1 13,3 2,3 3,7 3,13 z"
         inkscape:connector-curvature="0"
         style="fill:#fefefe;fill-rule:nonzero" /><path
         id="45"
         class="fil3"
         d="m 8737,2011 c 0,1 0,2 -1,3 -1,1 -2,1 -4,2 -1,0 -3,0 -6,0 -3,0 -5,0 -7,0 -2,-1 -3,-1 -4,-2 -1,-1 -1,-2 -1,-3 v -15 c -6,7 -13,13 -21,16 -8,4 -17,6 -25,6 -8,0 -15,-1 -21,-3 -6,-2 -12,-5 -16,-9 -5,-3 -8,-8 -10,-14 -3,-5 -4,-12 -4,-19 0,-8 2,-15 5,-21 3,-6 8,-11 14,-15 7,-4 14,-7 24,-9 9,-2 19,-3 30,-3 h 21 v -12 c 0,-5 -1,-10 -2,-15 -1,-4 -3,-8 -6,-11 -3,-2 -6,-5 -10,-6 -5,-2 -10,-2 -16,-2 -7,0 -13,0 -18,2 -5,2 -10,3 -14,5 -4,2 -7,4 -10,6 -2,1 -4,2 -5,2 -1,0 -2,0 -3,-1 0,0 -1,-1 -1,-2 -1,0 -1,-2 -1,-3 -1,-1 -1,-3 -1,-4 0,-3 0,-5 1,-7 0,-1 1,-3 3,-4 1,-2 4,-3 7,-5 4,-2 8,-4 12,-5 5,-2 10,-3 16,-4 5,-1 11,-2 16,-2 11,0 20,1 27,4 8,2 14,6 18,10 5,5 8,10 10,17 2,7 3,15 3,24 z m -26,-67 h -23 c -8,0 -14,1 -20,2 -5,1 -9,3 -13,5 -4,3 -6,6 -8,9 -2,4 -2,8 -2,12 0,8 2,14 7,18 5,5 11,7 20,7 7,0 14,-2 20,-5 6,-4 12,-9 19,-17 z"
         inkscape:connector-curvature="0"
         style="fill:#fefefe;fill-rule:nonzero" /><path
         id="46"
         class="fil3"
         d="m 8913,2011 c 0,1 -1,2 -1,2 -1,1 -1,1 -2,2 -1,0 -3,0 -4,1 -2,0 -4,0 -7,0 -3,0 -5,0 -7,0 -1,-1 -3,-1 -4,-1 -1,-1 -1,-1 -2,-2 0,0 0,-1 0,-2 v -86 c 0,-8 -1,-15 -2,-20 -2,-5 -4,-10 -6,-13 -3,-4 -6,-7 -10,-9 -4,-2 -8,-3 -13,-3 -7,0 -14,3 -20,8 -7,4 -14,11 -21,21 v 102 c 0,1 -1,2 -1,2 -1,1 -1,1 -2,2 -1,0 -3,0 -4,1 -2,0 -4,0 -7,0 -3,0 -5,0 -7,0 -1,-1 -3,-1 -4,-1 -1,-1 -2,-1 -2,-2 0,0 0,-1 0,-2 v -217 c 0,-1 0,-2 0,-3 0,0 1,-1 2,-1 1,-1 3,-1 4,-1 2,-1 4,-1 7,-1 3,0 5,0 7,1 1,0 3,0 4,1 1,0 1,1 2,1 0,1 1,2 1,3 v 87 c 7,-8 15,-14 23,-18 8,-4 15,-6 23,-6 10,0 18,2 25,5 7,3 12,8 16,13 4,6 7,12 9,20 2,7 3,16 3,27 z"
         inkscape:connector-curvature="0"
         style="fill:#fefefe;fill-rule:nonzero" /><path
         id="47"
         class="fil3"
         d="m 9269,2011 c 0,1 0,1 -1,2 0,1 -1,1 -2,2 -1,0 -3,0 -4,1 -2,0 -4,0 -7,0 -3,0 -5,0 -7,0 -2,-1 -3,-1 -4,-1 -1,-1 -2,-1 -2,-2 -1,-1 -1,-1 -1,-2 v -184 0 l -75,185 c 0,0 0,1 -1,2 0,0 -1,1 -2,1 -2,0 -3,1 -5,1 -1,0 -3,0 -5,0 -2,0 -4,0 -6,0 -2,-1 -3,-1 -4,-1 -1,-1 -2,-1 -3,-2 0,0 -1,-1 -1,-1 l -71,-185 v 0 184 c 0,1 0,1 -1,2 0,1 -1,1 -2,2 -1,0 -3,0 -4,1 -2,0 -4,0 -7,0 -3,0 -5,0 -7,0 -2,-1 -3,-1 -4,-1 -1,-1 -2,-1 -2,-2 -1,-1 -1,-1 -1,-2 v -194 c 0,-5 1,-8 4,-10 2,-2 5,-3 8,-3 h 17 c 3,0 7,1 9,1 3,1 5,2 7,3 2,2 4,4 5,6 1,2 3,5 4,7 l 60,153 h 1 l 62,-152 c 1,-3 3,-6 4,-8 2,-3 3,-4 5,-6 2,-1 4,-2 6,-3 2,0 4,-1 7,-1 h 18 c 2,0 3,1 5,1 1,1 2,1 3,2 1,1 2,3 3,4 1,2 1,4 1,6 z"
         inkscape:connector-curvature="0"
         style="fill:#fefefe;fill-rule:nonzero" /><path
         id="48"
         class="fil3"
         d="m 9432,2011 c 0,1 0,2 -1,3 -1,1 -2,1 -4,2 -1,0 -3,0 -6,0 -3,0 -5,0 -7,0 -2,-1 -3,-1 -4,-2 0,-1 -1,-2 -1,-3 v -15 c -6,7 -13,13 -21,16 -8,4 -16,6 -25,6 -8,0 -15,-1 -21,-3 -6,-2 -12,-5 -16,-9 -4,-3 -8,-8 -10,-14 -3,-5 -4,-12 -4,-19 0,-8 2,-15 5,-21 3,-6 8,-11 15,-15 6,-4 14,-7 23,-9 9,-2 19,-3 30,-3 h 21 v -12 c 0,-5 -1,-10 -2,-15 -1,-4 -3,-8 -6,-11 -3,-2 -6,-5 -10,-6 -4,-2 -10,-2 -16,-2 -6,0 -12,0 -18,2 -5,2 -10,3 -13,5 -4,2 -8,4 -10,6 -3,1 -5,2 -6,2 -1,0 -2,0 -3,-1 0,0 -1,-1 -1,-2 -1,0 -1,-2 -1,-3 -1,-1 -1,-3 -1,-4 0,-3 0,-5 1,-7 0,-1 1,-3 3,-4 1,-2 4,-3 7,-5 4,-2 8,-4 13,-5 4,-2 9,-3 15,-4 5,-1 11,-2 17,-2 10,0 19,1 26,4 8,2 14,6 18,10 5,5 8,10 10,17 2,7 3,15 3,24 z m -26,-67 h -23 c -8,0 -14,1 -19,2 -6,1 -10,3 -14,5 -4,3 -6,6 -8,9 -2,4 -2,8 -2,12 0,8 2,14 7,18 5,5 11,7 20,7 7,0 14,-2 20,-5 6,-4 12,-9 19,-17 z"
         inkscape:connector-curvature="0"
         style="fill:#fefefe;fill-rule:nonzero" /><path
         id="49"
         class="fil3"
         d="m 9607,2011 c 0,1 0,2 -1,2 0,1 -1,1 -2,2 -1,0 -2,0 -3,1 -2,0 -4,0 -6,0 -2,0 -4,0 -5,0 -2,-1 -3,-1 -4,-1 -1,-1 -2,-1 -2,-2 -1,0 -1,-1 -1,-2 v -20 c -8,9 -16,15 -24,20 -8,5 -17,7 -27,7 -11,0 -20,-2 -28,-6 -7,-4 -13,-10 -18,-17 -5,-7 -8,-16 -10,-25 -3,-10 -4,-20 -4,-31 0,-12 2,-24 4,-34 3,-10 7,-19 12,-26 6,-7 12,-12 20,-16 8,-4 17,-6 27,-6 9,0 17,2 24,6 7,3 14,9 21,16 v -85 c 0,-1 0,-1 0,-2 1,-1 2,-1 3,-2 1,0 2,0 4,-1 2,0 4,0 6,0 3,0 5,0 7,0 2,1 3,1 4,1 1,1 2,1 2,2 1,1 1,1 1,2 z m -27,-103 c -7,-9 -14,-16 -21,-21 -7,-5 -14,-7 -21,-7 -7,0 -13,2 -18,5 -4,3 -8,7 -11,13 -3,5 -5,11 -7,18 -1,7 -2,13 -2,20 0,8 1,15 2,22 1,7 3,13 6,19 3,5 6,10 11,13 5,3 11,5 18,5 3,0 7,0 10,-1 3,-1 7,-3 10,-5 4,-3 7,-6 11,-9 4,-4 8,-8 12,-14 z"
         inkscape:connector-curvature="0"
         style="fill:#fefefe;fill-rule:nonzero" /><path
         id="50"
         class="fil3"
         d="m 9767,2011 c 0,1 0,2 -1,3 -1,1 -2,1 -4,2 -1,0 -4,0 -7,0 -2,0 -5,0 -6,0 -2,-1 -3,-1 -4,-2 -1,-1 -1,-2 -1,-3 v -15 c -6,7 -14,13 -21,16 -8,4 -17,6 -25,6 -8,0 -15,-1 -21,-3 -7,-2 -12,-5 -16,-9 -5,-3 -8,-8 -11,-14 -2,-5 -3,-12 -3,-19 0,-8 1,-15 5,-21 3,-6 8,-11 14,-15 7,-4 14,-7 23,-9 9,-2 20,-3 31,-3 h 20 v -12 c 0,-5 0,-10 -1,-15 -2,-4 -4,-8 -6,-11 -3,-2 -6,-5 -11,-6 -4,-2 -9,-2 -15,-2 -7,0 -13,0 -18,2 -5,2 -10,3 -14,5 -4,2 -7,4 -10,6 -2,1 -4,2 -6,2 0,0 -1,0 -2,-1 -1,0 -1,-1 -2,-2 0,0 0,-2 -1,-3 0,-1 0,-3 0,-4 0,-3 0,-5 1,-7 0,-1 1,-3 2,-4 2,-2 4,-3 8,-5 3,-2 8,-4 12,-5 5,-2 10,-3 16,-4 5,-1 11,-2 16,-2 11,0 20,1 27,4 8,2 13,6 18,10 5,5 8,10 10,17 2,7 3,15 3,24 z m -27,-67 h -23 c -7,0 -13,1 -19,2 -5,1 -10,3 -13,5 -4,3 -6,6 -8,9 -2,4 -3,8 -3,12 0,8 3,14 8,18 4,5 11,7 20,7 7,0 13,-2 19,-5 6,-4 13,-9 19,-17 z"
         inkscape:connector-curvature="0"
         style="fill:#fefefe;fill-rule:nonzero" /></g></g></svg>